<svg width="18" height="18" viewBox="0 0 18 18" fill="none" xmlns="http://www.w3.org/2000/svg">
<g opacity="0.6">
<path d="M9 1C4.58333 1 1 4.58333 1 9C1 13.4167 4.58333 17 9 17C13.4167 17 16.97 13.4167 16.97 9C16.97 4.58333 13.4167 1 9 1ZM15.9333 9C15.9333 9.74467 15.8122 10.4607 15.594 11.1333H13.1087C13.2089 10.4533 13.2668 9.74 13.2668 9C13.2668 8.26 13.2089 7.54667 13.1087 6.86667H15.594C15.8133 7.54 15.9333 8.25667 15.9333 9ZM9 15.9333C7.92567 15.9333 6.76733 14.494 6.18367 12.2H11.787C11.2033 14.4933 10.0733 15.9333 9 15.9333ZM5.96333 11.1333C5.86 10.47 5.8 9.75667 5.8 9C5.8 8.24333 5.85847 7.52867 5.9625 6.86667H12.0392C12.1432 7.52867 12.2017 8.24267 12.2017 9C12.2017 9.75733 12.1432 10.4713 12.0392 11.1333H5.96333ZM2.06667 9C2.06667 8.25533 2.18777 7.53933 2.406 6.86667H4.89133C4.79107 7.54667 4.7332 8.26 4.7332 9C4.7332 9.74 4.79107 10.4533 4.89133 11.1333H2.406C2.18767 10.46 2.06667 9.74333 2.06667 9ZM9 2.06667C10.0743 2.06667 11.2327 3.506 11.8163 5.8H6.18333C6.76667 3.506 7.92667 2.06667 9 2.06667ZM15.1433 5.8H12.91C12.6056 4.495 12.12 3.37633 11.514 2.54533C13.08 3.15767 14.37 4.32 15.1433 5.8ZM6.48667 2.54533C5.88 3.37633 5.39667 4.49333 5.09 5.8H2.85533C3.629 4.32 4.92 3.15767 6.48667 2.54533ZM2.85533 12.2H5.09C5.39437 13.505 5.88 14.6237 6.486 15.4547C4.92 14.8433 3.629 13.68 2.85533 12.2ZM11.5133 15.4533C12.12 14.6233 12.6033 13.5067 12.91 12.2H15.1453C14.37 13.68 13.08 14.8433 11.5133 15.4533Z" fill="#272727"/>
</g>
</svg>
