<svg width="10" height="16" viewBox="0 0 10 16" fill="none" xmlns="http://www.w3.org/2000/svg">
<path d="M9.5 6C9.225 6 9 6.225 9 6.5V8C9 10.2969 7.05469 12.1437 4.725 11.9937C2.60312 11.8469 1 9.9875 1 7.85938V6.5C1 6.225 0.775 6 0.5 6C0.225 6 0 6.225 0 6.5V7.82438C0 10.43 1.92594 12.7025 4.5 12.9619V15H2.5C2.225 15 2 15.225 2 15.5C2 15.775 2.225 16 2.5 16H7.5C7.77503 16 8 15.775 8 15.5C8 15.225 7.77503 15 7.5 15H5.5V12.9688C8.025 12.7156 10 10.5875 10 8V6.5C10 6.225 9.775 6 9.5 6ZM5 11C6.65625 11 8 9.65625 8 8V3C8 1.37188 6.65625 0 5 0C3.34375 0 2 1.34375 2 3V8C2 9.65625 3.34375 11 5 11ZM3 3C3 1.89844 3.89844 1 5 1C6.10156 1 7 1.89844 7 3V8C7 9.10156 6.10156 10 5 10C3.89844 10 3 9.10312 3 8V3Z" fill="#272727"/>
</svg>
