<svg width="50" height="44" viewBox="0 0 50 44" fill="none" xmlns="http://www.w3.org/2000/svg">
<path d="M0 0H28C40.1503 0 50 9.84974 50 22C50 34.1503 40.1503 44 28 44H25C11.1929 44 0 32.8071 0 19V0Z" fill="url(#paint0_linear_53_1206)"/>
<path d="M34.8154 29.9336L29.2883 24.4062C30.507 22.9844 31.214 21.1445 31.214 19.125C31.214 14.6367 27.5763 11 23.0894 11C18.6026 11 15 14.6379 15 19.125C15 23.6121 18.6373 27.25 23.0894 27.25C25.1081 27.25 26.9506 26.5094 28.3704 25.291L33.8975 30.8184C34.0537 30.9375 34.2139 31 34.374 31C34.5342 31 34.6938 30.939 34.8158 30.8169C35.0615 30.5742 35.0615 30.1758 34.8154 29.9336ZM23.1246 26C19.3006 26 16.2499 22.9141 16.2499 19.125C16.2499 15.3359 19.3006 12.25 23.1246 12.25C26.9486 12.25 29.9992 15.3008 29.9992 19.125C29.9992 22.9492 26.9135 26 23.1246 26Z" fill="white"/>
<defs>
<linearGradient id="paint0_linear_53_1206" x1="1.86265e-06" y1="44" x2="43.6429" y2="-5.59423" gradientUnits="userSpaceOnUse">
<stop stop-color="#4E2E99"/>
<stop offset="1" stop-color="#4DA3F0"/>
</linearGradient>
</defs>
</svg>
