<svg width="18" height="18" viewBox="0 0 18 18" fill="none" xmlns="http://www.w3.org/2000/svg">
<g opacity="0.6">
<path d="M14.8636 8.65C14.7177 8.26 14.3462 8.00156 13.9306 8.00156L10.0642 8.00121L12.8298 2.44808C13.0429 2.02027 12.9242 1.50183 12.5477 1.20933C12.3949 1.06903 12.1801 1 11.9373 1C11.7026 1 11.4685 1.08331 11.282 1.24769L3.34071 8.24687C3.02847 8.52131 2.91765 8.96125 3.06346 9.35094C3.20928 9.74063 3.58072 10 3.99631 10L7.86269 9.99972L5.09708 15.5528C4.88406 15.9807 5.00272 16.4991 5.37918 16.7916C5.55936 16.9312 5.77447 17 5.98834 17C6.22278 17 6.45716 16.917 6.64394 16.7524L14.5853 9.78056C14.9258 9.47812 15.0348 9.0375 14.8636 8.65ZM5.98834 15.9719L8.75395 10.4187C8.90839 10.1087 8.89183 9.74063 8.71037 9.44563C8.52888 9.15081 8.20824 8.97125 7.863 8.97125L3.99662 8.97188L11.938 2C11.9381 1.99994 11.9374 2 11.938 2C11.938 2 11.9379 2 11.938 2L9.17297 7.55312C9.01853 7.86306 9.03509 8.23125 9.21655 8.52594C9.39804 8.82081 9.71868 9.00031 10.0639 9.00031L13.9303 9.00013L5.98834 15.9719Z" fill="#272727"/>
</g>
</svg>
