<svg width="48" height="48" viewBox="0 0 48 48" fill="none" xmlns="http://www.w3.org/2000/svg">
<rect width="48" height="48" rx="24" fill="#4DA3F0"/>
<g clip-path="url(#clip0_57_420)">
<path d="M24 11C16.8195 11 11 16.8195 11 24C11 31.1805 16.8195 37 24 37C31.1805 37 37 31.1805 37 24C37 16.8195 31.1805 11 24 11ZM24 35.375C17.7285 35.375 12.625 30.2715 12.625 24C12.625 17.7285 17.7285 12.625 24 12.625C30.2715 12.625 35.375 17.7285 35.375 24C35.375 30.2715 30.2715 35.375 24 35.375ZM24 20.3438C24.6729 20.3438 25.2188 19.7984 25.2188 19.125C25.2188 18.4521 24.6729 17.9062 24 17.9062C23.3271 17.9062 22.7812 18.4496 22.7812 19.125C22.7812 19.8004 23.3246 20.3438 24 20.3438ZM26.4375 28.875H24.8125V23.1875C24.8125 22.7406 24.4469 22.375 24 22.375H22.375C21.9281 22.375 21.5625 22.7406 21.5625 23.1875C21.5625 23.6344 21.9281 24 22.375 24H23.1875V28.875H21.5625C21.1156 28.875 20.75 29.2406 20.75 29.6875C20.75 30.1344 21.1156 30.5 21.5625 30.5H26.4375C26.8862 30.5 27.25 30.1362 27.25 29.6875C27.25 29.2406 26.8844 28.875 26.4375 28.875Z" fill="white"/>
</g>
<defs>
<clipPath id="clip0_57_420">
<rect width="26" height="26" fill="white" transform="translate(11 11)"/>
</clipPath>
</defs>
</svg>
