<svg width="24" height="24" viewBox="0 0 24 24" fill="none" xmlns="http://www.w3.org/2000/svg">
<path d="M17.293 12.2461C17.2852 10.8125 17.9336 9.73047 19.2461 8.93359C18.5117 7.88281 17.4023 7.30469 15.9375 7.19141C14.5508 7.08203 13.0352 8 12.4805 8C11.8945 8 10.5508 7.23047 9.49609 7.23047C7.31641 7.26563 5 8.96875 5 12.4336C5 13.457 5.1875 14.5143 5.5625 15.6055C6.0625 17.0391 7.86719 20.5547 9.75 20.4961C10.7344 20.4727 11.4297 19.7969 12.7109 19.7969C13.9531 19.7969 14.5977 20.4961 15.6953 20.4961C17.5937 20.4688 19.2266 17.2734 19.7031 15.8359C17.1562 14.6367 17.293 12.3203 17.293 12.2461ZM15.082 5.83203C16.1484 4.56641 16.0508 3.41406 16.0195 3C15.0781 3.05469 13.9883 3.64063 13.3672 4.36328C12.6836 5.13672 12.2812 6.09375 12.3672 7.17188C13.3867 7.25 14.3164 6.72656 15.082 5.83203Z" fill="white"/>
</svg>
