<svg width="17" height="12" viewBox="0 0 17 12" fill="none" xmlns="http://www.w3.org/2000/svg">
<path d="M0.25 0H16.25V12H0.25V0Z" fill="#012169"/>
<path d="M2.125 0L8.225 4.525L14.3 0H16.25V1.55L10.25 6.025L16.25 10.475V12H14.25L8.25 7.525L2.275 12H0.25V10.5L6.225 6.05L0.25 1.6V0H2.125Z" fill="white"/>
<path d="M10.85 7.025L16.25 11V12L9.475 7.025H10.85ZM6.25 7.525L6.4 8.4L1.6 12H0.25L6.25 7.525ZM16.25 0V0.075L10.025 4.775L10.075 3.675L15 0H16.25ZM0.25 0L6.225 4.4H4.725L0.25 1.05V0Z" fill="#C8102E"/>
<path d="M6.275 0V12H10.275V0H6.275ZM0.25 4V8H16.25V4H0.25Z" fill="white"/>
<path d="M0.25 4.825V7.225H16.25V4.825H0.25ZM7.075 0V12H9.475V0H7.075Z" fill="#C8102E"/>
</svg>
