<svg width="30" height="30" viewBox="0 0 30 30" fill="none" xmlns="http://www.w3.org/2000/svg">
<path d="M6.88577 25.6382C8.05167 26.4867 8.69632 28.4484 10.0969 28.9029C11.4479 29.3414 13.1163 28.1486 14.6144 28.1486C16.1123 28.1486 17.78 29.3421 19.1318 28.9029C20.5323 28.4484 21.1769 26.4867 22.3428 25.6382C23.5201 24.7817 25.5814 24.768 26.4388 23.5907C27.2873 22.4247 26.6687 20.4641 27.1234 19.0642C27.5618 17.7133 29.2295 16.497 29.2295 15C29.2295 13.5027 27.5618 12.2865 27.1234 10.9355C26.6687 9.53494 27.2873 7.5742 26.4388 6.40911C25.5823 5.23185 23.5201 5.21886 22.3428 4.3615C21.1769 3.51305 20.5323 1.55149 19.1318 1.09683C17.7807 0.65839 16.1123 1.85107 14.6144 1.85107C13.1163 1.85107 11.4486 0.65839 10.0969 1.09683C8.69632 1.55149 8.05167 3.51305 6.88577 4.3615C5.7085 5.21804 3.64708 5.23185 2.7897 6.40911C1.94127 7.575 2.55994 9.53494 2.10527 10.9355C1.66765 12.2865 0 13.5019 0 15C0 16.4979 1.66765 17.7133 2.10609 19.0642C2.56076 20.4648 1.94207 22.4256 2.79052 23.5907C3.64708 24.768 5.70932 24.7808 6.88659 25.6382H6.88577Z" fill="#4DA3F0"/>
<path d="M14.5198 8.32196C14.7088 7.89268 15.2912 7.89268 15.4803 8.32196L17.1518 12.1174C17.2288 12.2923 17.3871 12.4128 17.5697 12.4355L21.5326 12.9276C21.981 12.9833 22.1609 13.5635 21.8295 13.8845L18.8997 16.7223C18.7646 16.8532 18.7042 17.0481 18.74 17.237L19.5178 21.3366C19.6057 21.8003 19.1344 22.1589 18.7406 21.928L15.2583 19.8864C15.0979 19.7924 14.9022 19.7924 14.7416 19.8864L11.2594 21.928C10.8656 22.1589 10.3943 21.8003 10.4823 21.3366L11.26 17.237C11.2959 17.0481 11.2354 16.8532 11.1003 16.7223L8.17046 13.8845C7.83908 13.5635 8.01908 12.9833 8.46731 12.9276L12.4302 12.4355C12.6129 12.4128 12.7711 12.2923 12.8483 12.1174L14.5198 8.32196Z" fill="white"/>
</svg>
