<svg width="20" height="20" viewBox="0 0 20 20" fill="none" xmlns="http://www.w3.org/2000/svg">
<circle opacity="0.3" cx="10" cy="10" r="10" fill="#4DA3F0"/>
<path opacity="0.8" d="M11.2965 9.2375C10.8465 8.7625 10.234 8.4625 9.52148 8.4L11.859 6.1875V5H6.49648V6.15H10.2215L7.53398 8.6875L8.10898 9.65C8.37148 9.5125 8.70898 9.4125 8.99648 9.4125C9.44648 9.4125 9.87148 9.55 10.1965 9.85C10.584 10.2 10.7465 10.7 10.7465 11.225C10.7465 11.75 10.5715 12.2625 10.159 12.6125C9.84648 12.875 9.43398 13.0125 9.00898 13.025C8.58398 13.025 8.18398 12.8875 7.85898 12.625C7.59648 12.4125 7.42148 12.125 7.30898 11.7875L6.14648 12.1125C6.30898 12.65 6.62148 13.1375 7.05898 13.4875C7.60898 13.95 8.32148 14.1875 9.02148 14.175C9.70898 14.1875 10.4215 13.95 10.9715 13.4875C11.634 12.9375 11.9715 12.1 11.984 11.225C11.9965 10.5 11.784 9.775 11.2965 9.2375Z" fill="#272727"/>
</svg>
