<svg width="20" height="20" viewBox="0 0 20 20" fill="none" xmlns="http://www.w3.org/2000/svg">
<circle opacity="0.3" cx="10" cy="10" r="10" fill="#4DA3F0"/>
<path opacity="0.8" d="M6.12422 7.625H7.36172C7.36172 7.15 7.56172 6.7125 7.88672 6.4125C8.17422 6.1375 8.57422 5.9625 8.99922 5.9625C9.48672 5.9625 9.91172 6.15 10.2242 6.4875C10.4992 6.7875 10.6617 7.2 10.6617 7.625C10.6617 8.1 10.4367 8.6125 9.86172 9.1625L6.07422 12.8375V13.9875H11.8242V12.8375H7.93672L10.5492 10.1875C11.4367 9.3375 11.9117 8.6875 11.9117 7.6375C11.9117 6.9125 11.6367 6.2125 11.1367 5.6875C10.6242 5.1 9.87422 4.8125 9.06172 4.8125C8.33672 4.8125 7.59922 5.025 7.04922 5.5125C6.47422 6.0375 6.11172 6.8125 6.12422 7.625Z" fill="#272727"/>
</svg>
