<svg width="24" height="24" viewBox="0 0 24 24" fill="none" xmlns="http://www.w3.org/2000/svg">
<path d="M12.3813 22C10.1918 22 9.41289 21.5574 9.41289 20.5961V19.0508C8.82031 18.8018 8.26641 18.4832 7.7582 18.0973L6.41836 18.8699C6.23785 18.9755 6.02867 19.0267 5.81836 19.0267C4.38438 19.0267 2.83984 15.3989 2.83984 14.7845C2.83984 14.3607 3.06664 13.9509 3.45352 13.7271L4.78828 12.9568C4.78047 12.6289 4.75977 12.3125 4.75977 11.9648C4.75977 11.6172 4.78052 11.3348 4.82324 11.009L3.4875 10.2734C3.10117 10.0508 2.87461 9.64062 2.87461 9.21484C2.87461 8.72344 4.3582 4.96875 5.85117 4.96875C6.06277 4.96875 6.27383 5.02102 6.45742 5.12934L7.79141 5.90156C8.29922 5.51602 8.85391 5.19727 9.4125 4.94805V3.40273C9.4125 2.16934 10.8422 2 12.4164 2C13.9676 2 15.35 2.15949 15.35 3.40273V4.94805C15.9426 5.19707 16.4965 5.51562 17.0047 5.90156L18.3445 5.12891C18.525 5.02332 18.7344 4.97215 18.9449 4.97215C20.3695 4.97215 21.923 8.58738 21.923 9.21434C21.923 9.63816 21.6963 10.0479 21.3094 10.2718L19.9746 11.0421C20.0173 11.368 20.0381 11.6843 20.0381 11.9979C20.0381 12.3116 20.0173 12.628 19.9746 12.9538L21.3102 13.7253C21.6967 13.948 21.9234 14.3577 21.9234 14.7819C21.9234 15.2737 20.4398 19.028 18.9465 19.028C18.7348 19.028 18.5234 18.9757 18.3406 18.8674L17.0051 18.0971C16.4965 18.4829 15.943 18.8014 15.3504 19.0506V20.5959C15.3852 21.5547 14.6078 22 12.3813 22ZM7.92031 16.5781C9.32344 17.782 9.96484 17.9203 10.6957 18.1797V20.5957C11.2469 20.6873 11.8215 20.7413 12.4051 20.7413C12.9891 20.7413 13.582 20.6873 14.1703 20.5627L14.1331 18.1799C14.7608 17.9572 15.5073 17.7807 16.9085 16.5784L19.0026 17.7881C19.7362 16.9264 20.3218 15.9143 20.6975 14.7971L18.6296 13.6034C18.7368 13.0178 18.8194 12.61 18.8194 12.0772C18.8194 11.6495 18.7661 11.1409 18.6296 10.3952L20.7178 9.19008C20.3339 8.10609 19.7444 7.08187 18.9561 6.1932L16.9081 7.42016C15.505 6.21625 14.8635 6.07797 14.1327 5.81859V3.40273C13.5815 3.31117 13.0069 3.25715 12.4233 3.25715C11.8393 3.25715 11.2464 3.31117 10.6581 3.4357L10.6953 5.81852C10.0688 6.04297 9.32266 6.18359 7.92031 7.42188L5.82773 6.21094C5.08594 7.08242 4.49648 8.10664 4.12109 9.23711L6.20078 10.3957C6.09375 10.9805 6.01094 11.3906 6.01094 11.8867C6.01094 12.3145 6.06422 12.823 6.20074 13.5688L4.11246 14.7738C4.49641 15.8578 5.0859 16.882 5.87418 17.7707L7.92031 16.5781ZM12.4164 15.7148C10.3484 15.7148 8.66641 14.0328 8.66641 11.9648C8.66641 9.89688 10.35 8.21484 12.4164 8.21484C14.4828 8.21484 16.1664 9.89688 16.1664 11.9648C16.1664 14.0328 14.4828 15.7148 12.4164 15.7148ZM12.4164 9.46484C11.0375 9.46484 9.91641 10.5867 9.91641 11.9648C9.91641 13.343 11.0375 14.4648 12.4164 14.4648C13.7953 14.4648 14.9164 13.343 14.9164 11.9648C14.9164 10.5867 13.7953 9.46484 12.4164 9.46484Z" fill="white"/>
</svg>
