<svg width="24" height="24" viewBox="0 0 24 24" fill="none" xmlns="http://www.w3.org/2000/svg">
<path d="M19.0994 2.18307C19.3416 1.93898 19.74 1.93898 19.9821 2.18303L22.482 4.68268C22.5992 4.79986 22.6656 4.95884 22.6656 5.12445C22.6656 5.29046 22.5992 5.44944 22.482 5.56662L19.9821 8.06611C19.74 8.31219 19.3416 8.31219 19.0994 8.06611C18.8533 7.82393 18.8533 7.42551 19.0994 7.18334L20.5329 5.71466H7.2497C7.2497 7.82002 5.57009 9.46448 3.49988 9.46448V14.3471L2.24994 15.597V6.9646C2.24994 5.61896 3.36903 4.46472 4.74982 4.46472H14.321L14.3327 4.49948L20.5329 4.46472L19.0994 3.06674C18.8533 2.823 18.8533 2.42732 19.0994 2.18307ZM5.99976 5.71466H4.74982C4.05962 5.71466 3.49988 6.30838 3.49988 6.9646V8.21454C4.88067 8.21454 5.99976 7.12865 5.99976 5.71466ZM4.56662 20.9327C4.81075 21.1748 4.81075 21.5733 4.56662 21.8154C4.32289 22.0615 3.9272 22.0615 3.68307 21.8154L1.18304 19.3156C1.06586 19.1984 1 19.0382 1 18.839C1 18.7101 1.06586 18.55 1.18308 18.4328L3.68307 15.9329C3.9272 15.6868 4.32289 15.6868 4.56662 15.9329C4.81075 16.1751 4.81075 16.5735 4.56662 16.8157L3.13388 18.2141H9.33293H9.34855H16.4159C16.4159 16.1438 18.0604 14.4642 20.1657 14.4642V9.65197L21.4157 8.40203V16.9641C21.4157 18.3781 20.2946 19.464 18.9158 19.464H3.13388L4.56662 20.9327ZM17.6659 18.2141H18.9158C19.6072 18.2141 20.1657 17.6906 20.1657 16.9641V15.7142C18.7869 15.7142 17.6659 16.8665 17.6659 18.2141ZM15.5826 11.9644C15.5826 14.0697 13.903 15.7142 11.8328 15.7142C9.72744 15.7142 8.08299 14.0697 8.08299 11.9644C8.08299 9.89414 9.72744 8.21454 11.8328 8.21454C13.903 8.21454 15.5826 9.89414 15.5826 11.9644ZM11.8328 9.46448C10.454 9.46448 9.33293 10.6168 9.33293 11.9644C9.33293 13.3783 10.454 14.4642 11.8328 14.4642C13.2116 14.4642 14.3327 13.3783 14.3327 11.9644C14.3327 10.6168 13.2116 9.46448 11.8328 9.46448Z" fill="white"/>
</svg>
