<svg width="50" height="40" viewBox="0 0 50 40" fill="none" xmlns="http://www.w3.org/2000/svg">
<g filter="url(#filter0_d_46_41)">
<path d="M4 28.875C4 30.327 5.17305 31.5 6.625 31.5H38.125C39.577 31.5 40.75 30.327 40.75 28.875C40.75 27.423 39.577 26.25 38.125 26.25H6.625C5.17305 26.25 4 27.423 4 28.875ZM9.25 15.75C9.25 17.202 10.423 18.375 11.875 18.375H43.375C44.827 18.375 46 17.202 46 15.75C46 14.298 44.827 13.125 43.375 13.125H11.875C10.423 13.125 9.25 14.298 9.25 15.75ZM40.75 2.625C40.75 1.17305 39.577 0 38.125 0H6.625C5.17305 0 4 1.17305 4 2.625C4 4.07695 5.17305 5.25 6.625 5.25H38.125C39.577 5.25 40.75 4.07695 40.75 2.625Z" fill="url(#paint0_linear_46_41)" shape-rendering="crispEdges"/>
</g>
<defs>
<filter id="filter0_d_46_41" x="0" y="0" width="50" height="39.5" filterUnits="userSpaceOnUse" colorInterpolationFilters="sRGB">
<feFlood floodOpacity="0" result="BackgroundImageFix"/>
<feColorMatrix in="SourceAlpha" type="matrix" values="0 0 0 0 0 0 0 0 0 0 0 0 0 0 0 0 0 0 127 0" result="hardAlpha"/>
<feOffset dy="4"/>
<feGaussianBlur stdDeviation="2"/>
<feComposite in2="hardAlpha" operator="out"/>
<feColorMatrix type="matrix" values="0 0 0 0 0 0 0 0 0 0 0 0 0 0 0 0 0 0 0.25 0"/>
<feBlend mode="normal" in2="BackgroundImageFix" result="effect1_dropShadow_46_41"/>
<feBlend mode="normal" in="SourceGraphic" in2="effect1_dropShadow_46_41" result="shape"/>
</filter>
<linearGradient id="paint0_linear_46_41" x1="25" y1="31.5" x2="25" y2="0" gradientUnits="userSpaceOnUse">
<stop stopColor="#4965C6"/>
<stop offset="0.9998" stopColor="#657CF5" stop-opacity="0.828515"/>
<stop offset="0.9999" stopColor="#183BB6" stop-opacity="0.234375"/>
<stop offset="1" stopColor="#1937A0" stop-opacity="0"/>
</linearGradient>
</defs>
</svg>
