<svg width="27" height="26" viewBox="0 0 27 26" fill="none" xmlns="http://www.w3.org/2000/svg">
<path d="M13.4845 6.33393C9.65885 6.33393 6.57307 9.31016 6.57307 13C6.57307 16.6898 9.65885 19.6661 13.4845 19.6661C17.3101 19.6661 20.3959 16.6898 20.3959 13C20.3959 9.31016 17.3101 6.33393 13.4845 6.33393ZM13.4845 17.3338C11.0123 17.3338 8.99116 15.3903 8.99116 13C8.99116 10.6097 11.0062 8.66618 13.4845 8.66618C15.9627 8.66618 17.9778 10.6097 17.9778 13C17.9778 15.3903 15.9567 17.3338 13.4845 17.3338ZM22.2907 6.06125C22.2907 6.92569 21.5689 7.61609 20.6786 7.61609C19.7824 7.61609 19.0666 6.91989 19.0666 6.06125C19.0666 5.20261 19.7884 4.50641 20.6786 4.50641C21.5689 4.50641 22.2907 5.20261 22.2907 6.06125ZM26.8682 7.6393C26.766 5.55651 26.2727 3.71159 24.6907 2.19157C23.1148 0.671538 21.2019 0.195805 19.0425 0.0913756C16.8169 -0.0304586 10.1461 -0.0304586 7.92046 0.0913756C5.76704 0.190003 3.85421 0.665737 2.27223 2.18576C0.69024 3.70579 0.203012 5.55071 0.0947388 7.63349C-0.0315796 9.7801 -0.0315796 16.2141 0.0947388 18.3607C0.196997 20.4435 0.69024 22.2884 2.27223 23.8084C3.85421 25.3285 5.76102 25.8042 7.92046 25.9086C10.1461 26.0305 16.8169 26.0305 19.0425 25.9086C21.2019 25.81 23.1148 25.3343 24.6907 23.8084C26.2667 22.2884 26.76 20.4435 26.8682 18.3607C26.9945 16.2141 26.9945 9.7859 26.8682 7.6393ZM23.993 20.664C23.5238 21.8011 22.6155 22.6771 21.4305 23.1354C19.656 23.8142 15.4454 23.6576 13.4845 23.6576C11.5235 23.6576 7.30692 23.8084 5.53846 23.1354C4.35949 22.6829 3.4512 21.8069 2.976 20.664C2.27223 18.9525 2.43464 14.8913 2.43464 13C2.43464 11.1087 2.27824 7.04173 2.976 5.33605C3.44518 4.19893 4.35347 3.32288 5.53846 2.86455C7.31293 2.18576 11.5235 2.34241 13.4845 2.34241C15.4454 2.34241 19.6621 2.19157 21.4305 2.86455C22.6095 3.31708 23.5178 4.19313 23.993 5.33605C24.6968 7.04753 24.5343 11.1087 24.5343 13C24.5343 14.8913 24.6968 18.9583 23.993 20.664Z" fill="white"/>
</svg>
