<svg width="24" height="24" viewBox="0 0 24 24" fill="none" xmlns="http://www.w3.org/2000/svg">
<g opacity="0.6">
<path d="M17.6417 4.38542C17.3135 4.21483 16.9117 4.34246 16.7425 4.66796C16.5726 4.99479 16.6989 5.39713 17.0257 5.56754C19.6833 6.95417 21.3333 9.675 21.3333 12.6667C21.3333 17.0792 17.7446 20.6667 13.3333 20.6667C8.92208 20.6667 5.33333 17.0779 5.33333 12.6667C5.33333 9.67333 6.98458 6.95417 9.64167 5.56667C9.9685 5.39608 10.095 4.99375 9.92487 4.66708C9.75417 4.3425 9.35 4.215 9.025 4.38542C5.92583 6.00125 4 9.175 4 12.6667C4 17.8125 8.1875 22 13.3333 22C18.4792 22 22.6667 17.8125 22.6667 12.6667C22.6667 9.175 20.7417 6.00125 17.6417 4.38542ZM13.2958 14C13.7 14 14 13.7 14 13.3333V2.66667C14 2.29817 13.7018 2 13.3708 2C13.0398 2 12.6667 2.29817 12.6667 2.66667V13.3333C12.6667 13.7 12.9667 14 13.2958 14Z" fill="white"/>
</g>
</svg>
