<svg width="24" height="24" viewBox="0 0 24 24" fill="none" xmlns="http://www.w3.org/2000/svg">
<path d="M12.3667 2C6.06688 2 1.00117 6.14925 1.00117 11.2671C1.00117 13.3887 1.88822 15.3326 3.35849 16.8942C2.69598 18.654 1.31482 20.1412 1.29255 20.1577C0.99747 20.4696 0.919501 20.9263 1.08658 21.3161C1.22019 21.746 1.60175 22 2.03035 22C4.76994 22 6.89112 20.8528 8.22772 19.9394C9.47967 20.3404 10.9081 20.5743 12.3667 20.5743C18.6666 20.5743 23.7323 16.425 23.7323 11.3473C23.7323 6.26955 18.6666 2 12.3667 2ZM12.3667 19.1486C11.1081 19.1486 9.86105 18.9592 8.65811 18.5805C8.23414 18.4438 7.7706 18.5154 7.40749 18.7738C6.42287 19.4978 4.79934 20.3461 2.83187 20.5408C3.32641 19.8671 4.15733 18.7364 4.64697 17.4385L4.65271 17.4234C4.84353 16.9213 4.73251 16.3942 4.36623 15.9612C3.0778 14.564 2.38945 12.9824 2.38945 11.3072C2.38945 6.98552 6.86706 3.46581 12.3293 3.46581C17.8316 3.46581 22.2692 6.98552 22.2692 11.3072C22.2692 15.6289 17.8691 19.1486 12.3667 19.1486ZM13.0796 12.7329H7.37675C6.98464 12.7329 6.6639 13.0536 6.6639 13.4057C6.6238 13.8378 6.98468 14.1586 7.37675 14.1586H13.0796C13.4717 14.1586 13.7523 13.8376 13.7523 13.4458C13.7523 13.0537 13.4717 12.7329 13.0796 12.7329ZM17.3567 8.45578H7.37675C6.98464 8.45578 6.6639 8.77652 6.6639 9.12854C6.6238 9.5607 6.98468 9.88149 7.37675 9.88149H17.3567C17.7488 9.88149 18.0295 9.56053 18.0295 9.16863C18.0295 8.77657 17.7488 8.45578 17.3567 8.45578Z" fill="white"/>
</svg>
