<svg width="25" height="26" viewBox="0 0 25 26" fill="none" xmlns="http://www.w3.org/2000/svg">
<path d="M7.8125 4.875C7.8125 3.58207 8.30636 2.34209 9.18544 1.42785C10.0645 0.513615 11.2568 0 12.5 0C13.7432 0 14.9355 0.513615 15.8146 1.42785C16.6936 2.34209 17.1875 3.58207 17.1875 4.875V13C17.1875 14.2929 16.6936 15.5329 15.8146 16.4471C14.9355 17.3614 13.7432 17.875 12.5 17.875C11.2568 17.875 10.0645 17.3614 9.18544 16.4471C8.30636 15.5329 7.8125 14.2929 7.8125 13V4.875Z" fill="black"/>
<path d="M5.46875 10.5625C5.67595 10.5625 5.87466 10.6481 6.02118 10.8005C6.16769 10.9528 6.25 11.1595 6.25 11.375V13C6.25 14.7239 6.90848 16.3772 8.08058 17.5962C9.25268 18.8152 10.8424 19.5 12.5 19.5C14.1576 19.5 15.7473 18.8152 16.9194 17.5962C18.0915 16.3772 18.75 14.7239 18.75 13V11.375C18.75 11.1595 18.8323 10.9528 18.9788 10.8005C19.1253 10.6481 19.324 10.5625 19.5312 10.5625C19.7385 10.5625 19.9372 10.6481 20.0837 10.8005C20.2302 10.9528 20.3125 11.1595 20.3125 11.375V13C20.3125 15.0142 19.5931 16.9567 18.2939 18.4505C16.9947 19.9443 15.2083 20.883 13.2812 21.0844V24.375H17.9688C18.176 24.375 18.3747 24.4606 18.5212 24.613C18.6677 24.7653 18.75 24.972 18.75 25.1875C18.75 25.403 18.6677 25.6097 18.5212 25.762C18.3747 25.9144 18.176 26 17.9688 26H7.03125C6.82405 26 6.62534 25.9144 6.47882 25.762C6.33231 25.6097 6.25 25.403 6.25 25.1875C6.25 24.972 6.33231 24.7653 6.47882 24.613C6.62534 24.4606 6.82405 24.375 7.03125 24.375H11.7188V21.0844C9.79169 20.883 8.00527 19.9443 6.70606 18.4505C5.40685 16.9567 4.68748 15.0142 4.6875 13V11.375C4.6875 11.1595 4.76981 10.9528 4.91632 10.8005C5.06284 10.6481 5.26155 10.5625 5.46875 10.5625Z" fill="black"/>
</svg>
