<svg width="24" height="24" viewBox="0 0 24 24" fill="none" xmlns="http://www.w3.org/2000/svg">
<path d="M3.07948 18.2308C2.3214 18.2308 1.69226 18.8538 1.69226 19.6154C1.69226 20.3769 2.3214 21 3.07948 21C3.84318 21 4.4615 20.3769 4.4615 19.6154C4.4615 18.8538 3.84318 18.2308 3.07948 18.2308ZM9.99997 6.46152H22.4615C22.8423 6.46152 23.1538 6.14998 23.1538 5.76921C23.1538 5.38839 22.8423 5.0769 22.4615 5.0769H9.99997C9.6192 5.0769 9.30766 5.38844 9.30766 5.76921C9.30766 6.14998 9.6192 6.46152 9.99997 6.46152ZM22.4615 12H9.99997C9.6192 12 9.30766 12.3115 9.30766 12.6923C9.30766 13.073 9.61924 13.3846 9.99997 13.3846H22.4615C22.8423 13.3846 23.1538 13.0731 23.1538 12.6923C23.1538 12.3115 22.8423 12 22.4615 12ZM22.4615 18.9231H8.61535C8.23458 18.9231 7.92304 19.2346 7.92304 19.6154C7.92304 19.9961 8.23462 20.3077 8.61535 20.3077H22.4615C22.8423 20.3077 23.1538 19.9961 23.1538 19.6154C23.1538 19.2346 22.8423 18.9231 22.4615 18.9231ZM6.69852 10.1697L3.68005 13.7957L2.13577 12.5075C1.84371 12.2655 1.40712 12.302 1.16092 12.5961C0.915882 12.887 0.955084 13.324 1.24854 13.5707L3.32546 15.3014C3.45549 15.4096 3.61212 15.4615 3.73025 15.4615C3.92769 15.4615 4.12508 15.377 4.26159 15.2127L7.72357 11.0584C8.00525 10.7625 7.96631 10.3255 7.67641 10.0832C7.38218 9.84085 6.94516 9.87546 6.69852 10.1697ZM6.69852 3.2479L3.68005 6.87257L2.13577 5.58445C1.84371 5.3424 1.40712 5.37887 1.16092 5.67302C0.915882 5.96392 0.955084 6.40094 1.24854 6.64757L3.32546 8.37878C3.45549 8.48652 3.61212 8.53844 3.73025 8.53844C3.92769 8.53844 4.12508 8.45394 4.26159 8.2896L7.72357 4.13531C8.00525 3.84113 7.96631 3.40411 7.67641 3.15964C7.38218 2.91733 6.94516 2.95411 6.69852 3.2479Z" fill="white"/>
</svg>
