<svg width="18" height="18" viewBox="0 0 18 18" fill="none" xmlns="http://www.w3.org/2000/svg">
<g clip-path="url(#clip0_48_191)">
<path d="M8.9993 14.3996C8.64419 14.3996 8.35645 14.1118 8.35645 13.7567V7.56961C8.35645 7.2145 8.64419 6.92676 8.9993 6.92676C9.35442 6.92676 9.64216 7.2145 9.64216 7.56961V13.7567C9.64216 14.1118 9.35442 14.3996 8.9993 14.3996Z" fill="#4DA3F0"/>
<path d="M8.99976 6.01953C9.49042 6.01953 9.88818 5.62177 9.88818 5.1311C9.88818 4.64044 9.49042 4.24268 8.99976 4.24268C8.50909 4.24268 8.11133 4.64044 8.11133 5.1311C8.11133 5.62177 8.50909 6.01953 8.99976 6.01953Z" fill="#4DA3F0"/>
<path d="M9 18C7.78526 18 6.60651 17.7619 5.49669 17.2926C4.42491 16.8393 3.46243 16.1905 2.63623 15.364C1.80977 14.5378 1.161 13.5753 0.707657 12.5036C0.238114 11.3935 0 10.2147 0 9C0 7.78526 0.238114 6.60651 0.707657 5.49669C1.161 4.42491 1.80977 3.46243 2.63623 2.63623C3.46269 1.81003 4.42491 1.16074 5.49669 0.707657C6.60651 0.238114 7.78526 0 9 0C10.2147 0 11.3935 0.238114 12.5033 0.707657C13.5751 1.161 14.5376 1.80977 15.3638 2.63623C16.19 3.46269 16.839 4.42491 17.2923 5.49669C17.7619 6.60677 17.9997 7.78526 17.9997 9C17.9997 10.2147 17.7616 11.3935 17.2923 12.5033C16.839 13.5751 16.1902 14.5376 15.3638 15.3638C14.5373 16.1902 13.5751 16.839 12.5033 17.2923C11.3932 17.7619 10.2147 17.9997 9 17.9997V18ZM9 1.28571C4.74634 1.28571 1.28571 4.74634 1.28571 9C1.28571 13.2537 4.74634 16.7143 9 16.7143C13.2537 16.7143 16.7143 13.2537 16.7143 9C16.7143 4.74634 13.2537 1.28571 9 1.28571Z" fill="#4DA3F0"/>
</g>
<defs>
<clipPath id="clip0_48_191">
<rect width="18" height="18" fill="white"/>
</clipPath>
</defs>
</svg>
