<svg width="36" height="36" viewBox="0 0 36 36" fill="none" xmlns="http://www.w3.org/2000/svg">
<path opacity="0.3" d="M36 9V27C36 29.8425 34.6875 32.37 32.6325 34.02C31.0875 35.265 29.13 36 27 36H9C7.455 36 5.9925 35.61 4.71749 34.92C1.90499 33.3975 0 30.42 0 27V9C0 8.7825 0.00749908 8.5725 0.0224991 8.355C0.0224991 8.3325 0.029995 8.3025 0.029995 8.28C0.397495 3.6525 4.2675 0 9 0H27C31.7325 0 35.6025 3.6525 35.97 8.28C35.97 8.3025 35.97 8.3325 35.97 8.355C35.985 8.5725 35.9925 8.7825 35.9925 9H36Z" fill="#4DA3F0"/>
<path d="M36 9V17.94C35.2275 18.345 34.425 18.6675 33.6 18.87C27.57 20.355 25.035 14.55 25.035 14.55C16.05 16.3575 11.19 9.57 11.19 9.57C6.405 14.355 2.385 14.8125 0 14.4525V9C0 8.7825 0.00749908 8.5725 0.0224991 8.355C0.0224991 8.3325 0.029995 8.3025 0.029995 8.28C0.397495 3.6525 4.2675 0 9 0H27C31.7325 0 35.6025 3.6525 35.97 8.28C35.97 8.3025 35.97 8.3325 35.97 8.355C35.985 8.5725 35.9925 8.7825 35.9925 9H36Z" fill="url(#paint0_linear_48_185)"/>
<path d="M20.3998 23.3926C20.3998 31.1101 9.1123 31.1101 9.1123 23.3926H20.3998Z" fill="url(#paint1_linear_48_185)"/>
<defs>
<linearGradient id="paint0_linear_48_185" x1="1.3411e-06" y1="19.1131" x2="15.8322" y2="-10.7074" gradientUnits="userSpaceOnUse">
<stop stopColor="#4E2E99"/>
<stop offset="1" stopColor="#4DA3F0"/>
</linearGradient>
<linearGradient id="paint1_linear_48_185" x1="9.11231" y1="29.1807" x2="13.8125" y2="20.0147" gradientUnits="userSpaceOnUse">
<stop stopColor="#4E2E99"/>
<stop offset="1" stopColor="#4DA3F0"/>
</linearGradient>
</defs>
</svg>
