<svg width="24" height="24" viewBox="0 0 24 24" fill="none" xmlns="http://www.w3.org/2000/svg">
<path d="M19.5 7C20.8789 7 22 8.12109 22 9.5V19.5C22 20.8789 20.8789 22 19.5 22H4.5C3.11914 22 2 20.8789 2 19.5V9.5C2 8.12109 3.11914 7 4.5 7H19.5ZM19.5 8.25H4.5C3.80977 8.25 3.25 8.80859 3.25 9.5V19.5C3.25 20.1914 3.80977 20.75 4.5 20.75H19.5C20.1914 20.75 20.75 20.1914 20.75 19.5V9.5C20.75 8.80859 20.1914 8.25 19.5 8.25ZM19.5 4.5C19.8438 4.5 20.125 4.77969 20.125 5.125C20.125 5.47031 19.8438 5.75 19.5 5.75H4.5C4.15469 5.75 3.875 5.47031 3.875 5.125C3.875 4.77969 4.15469 4.5 4.5 4.5H19.5ZM17.625 2C17.9688 2 18.25 2.27984 18.25 2.625C18.25 2.97031 17.9688 3.25 17.625 3.25H6.375C6.03125 3.25 5.75 2.97031 5.75 2.625C5.75 2.27984 6.03125 2 6.375 2H17.625Z" fill="white"/>
</svg>
