<svg width="24" height="24" viewBox="0 0 24 24" fill="none" xmlns="http://www.w3.org/2000/svg">
<path d="M9.24991 12.36C11.718 12.36 13.6822 10.2648 13.6822 7.68C13.6822 5.0952 11.6815 3 9.24991 3C6.81836 3 4.81757 5.0952 4.81757 7.68C4.77888 10.263 6.78224 12.36 9.24991 12.36ZM9.24991 4.44C10.9558 4.44 12.3435 5.8935 12.3435 7.68C12.3435 9.4665 10.9523 10.92 9.24991 10.92C7.54748 10.92 6.15458 9.4665 6.15458 7.68C6.15458 5.8935 7.54318 4.44 9.24991 4.44ZM11.3994 13.8H7.10897C3.73421 13.8 1 16.4865 1 19.7985C1 20.4645 1.54598 21 2.22093 21H16.2875C16.9624 21 17.5084 20.4645 17.5084 19.7985C17.5084 16.4865 14.7742 13.8 11.3994 13.8ZM2.3843 19.56C2.51413 17.1566 4.58499 15.24 7.07458 15.24H11.3994C13.9264 15.24 15.9951 17.1566 16.0897 19.56H2.3843Z" fill="white"/>
<path d="M18.4974 10.9197C20.3967 10.9197 21.9366 9.30783 21.9366 7.31973C21.9366 5.33163 20.3975 3.71973 18.4974 3.71973C16.5972 3.71973 15.0581 5.33163 15.0581 7.31973C15.0581 9.30783 16.5972 10.9197 18.4974 10.9197ZM18.4974 5.15973C19.6353 5.15973 20.5609 6.12858 20.5609 7.31973C20.5609 8.51088 19.6366 9.47973 18.4974 9.47973C17.3581 9.47973 16.4338 8.51088 16.4338 7.31973C16.4338 6.12858 17.3581 5.15973 18.4974 5.15973ZM20.6082 12.3597H17.8095C17.3297 12.3597 16.8603 12.4722 16.4136 12.6945C16.0705 12.8655 15.9239 13.2948 16.0873 13.6535C16.2507 14.0121 16.6625 14.166 17.0034 13.995C17.2635 13.8672 17.5344 13.7997 17.8095 13.7997H20.6073C21.683 13.7997 22.6245 14.8212 22.6245 16.0812V16.6797C22.6245 17.0775 22.9323 17.3997 23.3123 17.3997C23.6923 17.3997 24.0002 17.0757 24.0002 16.6797V16.0812C24.0002 14.0292 22.4783 12.3597 20.6082 12.3597Z" fill="white"/>
</svg>
