<svg width="42" height="39" viewBox="0 0 42 39" fill="none" xmlns="http://www.w3.org/2000/svg">
<path d="M25.3823 7.03098L4.25104 28.1622C3.91154 28.5017 3.68499 28.9373 3.60237 29.4106L2.35739 36.5178C2.17269 37.5743 3.09312 38.4938 4.14968 38.3086L11.2612 37.0617C11.7337 36.979 12.1691 36.7525 12.5081 36.4135L33.6394 15.2822L25.3823 7.03098ZM38.6385 10.275C40.0057 8.90786 40.0057 6.68973 38.6385 5.32255L35.339 2.02307C33.9696 0.654421 31.7522 0.654421 30.3829 2.02307L27.0294 5.37723L35.2836 13.6314L38.6385 10.275ZM39.601 33.6011C37.2677 33.6011 35.8662 32.0567 36.0303 30.174C36.2178 28.0237 35.4953 25.8078 33.864 24.1664C32.7957 23.0901 31.4592 22.377 30.0059 22.0854L21.1539 30.9374C21.4179 32.3666 22.0405 33.7389 23.1379 34.845C25.9882 37.7143 31.7129 38.2663 35.6869 38.2663H39.604C40.8924 38.2663 41.9373 37.2214 41.9373 35.933C42 34.7094 40.9573 33.6011 39.601 33.6011ZM16.9458 12.1709L6.9701 2.19734C5.37468 0.60265 2.79125 0.60265 1.19583 2.19734C-0.399587 3.79202 -0.399587 6.37619 1.19583 7.97161L11.1708 17.9466L16.9458 12.1709Z" fill="url(#paint0_linear_1_144)"/>
<defs>
<linearGradient id="paint0_linear_1_144" x1="-0.000730859" y1="38.3325" x2="37.0841" y2="-3.32617" gradientUnits="userSpaceOnUse">
<stop stop-color="#4E2E99"/>
<stop offset="1" stop-color="#4DA3F0"/>
</linearGradient>
</defs>
</svg>
