<svg width="42" height="39" viewBox="0 0 42 39" fill="none" xmlns="http://www.w3.org/2000/svg">
<path d="M-4.62366e-05 2.88246C0.166344 2.18653 0.405864 1.52644 0.919794 1.00433C1.63232 0.282021 2.51257 -3.0777e-06 3.5042 -3.0777e-06C10.4362 0.00134956 17.3682 -0.00135571 24.3002 0.00270219C25.3167 0.00270219 26.3372 -0.0196163 27.3489 0.0561312C28.876 0.171105 30.0997 1.4764 30.191 3.02584C30.2279 3.65481 30.2131 4.28717 30.2131 4.91817C30.2131 5.01218 30.1903 5.13121 30.1326 5.19681C29.145 6.31341 28.1493 7.42392 27.155 8.53444C27.149 8.5412 27.1336 8.53985 27.0665 8.55337C27.0604 8.43569 27.049 8.32343 27.049 8.21116C27.0477 6.67862 27.0423 5.14541 27.0531 3.61288C27.0551 3.32274 27.0034 3.20641 26.6733 3.20709C18.9583 3.21724 11.244 3.21521 3.52903 3.21521H3.19423C3.18484 3.36941 3.17075 3.50061 3.17075 3.63114C3.16941 14.0451 3.17075 24.459 3.16337 34.8729C3.16337 35.1915 3.24053 35.2902 3.56861 35.2895C11.2608 35.2801 18.9536 35.2801 26.6458 35.2895C26.9685 35.2895 27.0571 35.203 27.0544 34.8776C27.0403 32.8041 27.0517 30.7298 27.0416 28.6562C27.0403 28.3884 27.1134 28.1902 27.2906 27.9941C28.1997 26.9864 29.0974 25.9678 30.0004 24.9541C30.044 24.9054 30.095 24.8641 30.1957 24.7701C30.2071 24.927 30.2205 25.0298 30.2205 25.1326C30.2218 28.4351 30.2218 31.7368 30.2218 35.0393C30.2218 36.421 29.6703 37.5045 28.4258 38.1145C27.9414 38.3519 27.3536 38.4804 26.8129 38.4817C19.0201 38.5041 11.2272 38.4993 3.43376 38.4946C1.66922 38.4932 0.462893 37.5099 0.0516151 35.7704C0.0388675 35.7176 0.0167269 35.6669 -0.000717163 35.6148C-0.000717163 24.7038 -0.000717163 13.7921 -0.000717163 2.88111L-4.62366e-05 2.88246ZM42 6.87273C41.7718 6.50752 41.6054 6.0767 41.3042 5.78859C40.1958 4.72813 39.0559 3.70013 37.8999 2.69174C37.3618 2.22305 36.699 2.09928 36.0535 2.43812C35.7006 2.62343 35.3987 2.93183 35.1183 3.22806C34.5339 3.84553 33.9797 4.49142 33.39 5.1515C35.4343 6.99852 37.4578 8.82728 39.4994 10.6729C39.8248 10.3098 40.1422 9.9777 40.4347 9.62398C40.9869 8.95646 41.6886 8.40188 42 7.54972V6.8734V6.87273ZM35.6718 5.02909C36.03 4.626 36.3682 4.24524 36.7372 3.82998C37.2578 4.29461 37.7577 4.73557 38.2522 5.18194C38.9251 5.78994 39.5967 6.3993 40.2589 7.01881C40.32 7.0763 40.3649 7.25417 40.3273 7.29948C40.0294 7.65928 39.7101 8.00015 39.3733 8.3728C38.1341 7.25349 36.9177 6.1538 35.6718 5.02841V5.02909ZM36.8546 13.6501C34.8076 11.7997 32.7841 9.97093 30.7425 8.12527C26.409 12.9947 22.1056 17.8311 17.7762 22.6958C19.8191 24.5435 21.842 26.373 23.8883 28.224C28.2211 23.3539 32.5305 18.5101 36.8546 13.6501ZM29.0316 15.0879C28.2835 15.9388 27.5274 16.7821 26.7746 17.6289C25.2315 19.3629 23.6763 21.0862 22.1533 22.8385C21.5763 23.502 21.2294 23.2734 20.7323 22.6167C20.5779 22.4131 20.6839 22.1852 20.8456 22.0026C21.5447 21.2147 22.2432 20.4261 22.9436 19.6389C24.5163 17.8703 26.0896 16.1024 27.6636 14.3345C27.7756 14.2087 27.8964 14.0911 28.0017 13.9605C28.1728 13.7475 28.3808 13.6406 28.6492 13.7292C28.9484 13.828 29.3416 14.3041 29.3382 14.6483C29.2698 14.7478 29.1678 14.9324 29.0316 15.0873V15.0879ZM29.8897 12.3205C29.7824 12.0459 29.8783 11.8227 30.0762 11.6218C30.2487 11.4473 30.3976 11.2492 30.5714 11.0754C30.8391 10.8069 31.0404 10.796 31.3369 11.0152C31.4262 11.0814 31.5174 11.1477 31.5972 11.2248C31.9273 11.5454 31.9495 11.7706 31.663 12.1291C31.4818 12.3556 31.2826 12.57 31.0746 12.7716C30.984 12.8588 30.8498 12.9007 30.7921 12.9325C30.4976 12.9386 29.9877 12.5714 29.8897 12.3205ZM22.4076 10.702C22.6082 10.702 22.8108 10.6939 23.0087 10.6655C23.8413 10.5451 24.4478 9.71393 24.3224 8.87801C24.1922 8.01097 23.5434 7.49359 22.5773 7.49291C17.6024 7.49156 12.6268 7.49291 7.65187 7.49291C7.58478 7.49291 7.51769 7.49088 7.45059 7.49561C6.67769 7.5504 6.0658 8.02923 5.9182 8.69269C5.75583 9.42447 6.03628 10.1495 6.68775 10.4707C6.99503 10.6222 7.37142 10.6912 7.71695 10.6939C10.1652 10.7122 12.614 10.7034 15.0623 10.7041C17.5105 10.7041 19.9593 10.7054 22.4076 10.7027V10.702ZM21.7722 14.2304C17.0321 14.2304 12.292 14.2297 7.5519 14.2324C7.37478 14.2324 7.19094 14.2425 7.0212 14.2899C6.23823 14.5077 5.79005 15.2334 5.89807 16.0848C5.99267 16.8335 6.6797 17.4138 7.51701 17.4151C11.3628 17.4212 15.2085 17.4199 19.0543 17.4104C19.1885 17.4104 19.3562 17.3293 19.4508 17.2298C19.846 16.8166 20.2203 16.3831 20.6001 15.9557C21.0892 15.4058 21.5763 14.8546 22.1123 14.2493C21.9473 14.2392 21.8594 14.2297 21.7715 14.2297L21.7722 14.2304ZM15.7359 20.8569C13.0857 20.8569 10.4362 20.8569 7.78606 20.8569C7.65187 20.8569 7.51768 20.8556 7.38417 20.8657C6.49251 20.9306 5.85714 21.6164 5.87727 22.4889C5.8974 23.364 6.55759 24.0444 7.4459 24.0491C9.6935 24.062 11.9404 24.0559 14.188 24.0498C14.282 24.0498 14.4202 23.9998 14.4618 23.9288C15.0334 22.9386 15.5923 21.9397 16.2028 20.8569C15.9969 20.8569 15.8667 20.8569 15.7365 20.8569H15.7359ZM16.9415 23.8794C16.5094 25.3937 16.0774 26.9079 15.6473 28.4229C15.4138 29.2453 15.1669 30.0636 14.9562 30.8921C14.7785 31.5907 15.3239 32.1277 16.021 31.9641C16.1934 31.9235 16.3612 31.8552 16.5262 31.7876C18.2512 31.0774 19.9761 30.3659 21.6997 29.6524C22.1667 29.459 22.6296 29.2575 23.1416 29.039C21.0885 27.1832 19.0918 25.3781 17.0562 23.5385C17.0032 23.6954 16.9684 23.7867 16.9422 23.8801L16.9415 23.8794ZM21.1482 28.6907C20.7678 28.8557 20.4491 28.9984 20.1271 29.1323C19.6212 29.3413 19.1173 29.5544 18.6034 29.741C18.4961 29.7802 18.3129 29.7552 18.2277 29.6829C17.7842 29.3068 17.3568 28.9112 16.9348 28.5101C16.8677 28.4466 16.806 28.3086 16.8275 28.2281C17.063 27.3611 17.3152 26.4988 17.5648 25.6358C17.5735 25.6067 17.599 25.5823 17.642 25.5181C18.798 26.5637 19.9446 27.6012 21.1482 28.69V28.6907ZM13.4004 27.5768C13.1749 27.5768 13.0106 27.5768 12.8462 27.5768C11.081 27.5768 9.31644 27.5721 7.55123 27.5795C6.67031 27.5836 5.99468 28.1354 5.89807 28.9037C5.76254 29.975 6.44018 30.7568 7.54117 30.7697C8.71395 30.7832 9.88673 30.7731 11.0595 30.7731C11.5385 30.7731 12.0176 30.7731 12.5033 30.7731C12.8053 29.6957 13.0951 28.663 13.3997 27.5768H13.4004ZM37.4517 12.9846C37.9556 12.4158 38.4347 11.8741 38.9439 11.2992C36.9009 9.45085 34.8808 7.62344 32.8378 5.77574C32.3319 6.34385 31.8495 6.88625 31.3383 7.45977C33.3859 9.31017 35.4094 11.1396 37.4511 12.9846H37.4517Z" fill="url(#paint0_linear_1_183)"/>
<defs>
<linearGradient id="paint0_linear_1_183" x1="-0.000715598" y1="38.4985" x2="38.3528" y2="-3.34347" gradientUnits="userSpaceOnUse">
<stop stop-color="#4E2E99"/>
<stop offset="1" stop-color="#4DA3F0"/>
</linearGradient>
</defs>
</svg>
