<svg width="38" height="38" viewBox="0 0 38 38" fill="none" xmlns="http://www.w3.org/2000/svg">
<path d="M20.38 16.7C19.46 16.47 18.54 16.01 17.85 15.32C17.16 15.09 16.93 14.4 16.93 13.94C16.93 13.48 17.16 12.79 17.62 12.56C18.31 12.1 19 11.64 19.69 11.87C21.07 11.87 22.22 12.56 22.91 13.48L24.98 10.72C24.29 10.03 23.6 9.56997 22.91 9.10997C22.22 8.64997 21.3 8.41998 20.38 8.41998V5.19998H17.62V8.41998C16.47 8.64998 15.32 9.33998 14.4 10.26C13.48 11.41 12.79 12.79 13.02 14.17C13.02 15.55 13.48 16.93 14.4 17.85C15.55 19 17.16 19.69 18.54 20.38C19.23 20.61 20.15 21.07 20.84 21.53C21.3 21.99 21.53 22.68 21.53 23.37C21.53 24.06 21.3 24.75 20.84 25.44C20.15 26.13 19.23 26.36 18.54 26.36C17.62 26.36 16.47 26.13 15.78 25.44C15.09 24.98 14.4 24.29 13.94 23.6L11.64 26.13C12.33 27.05 13.02 27.74 13.94 28.43C15.09 29.12 16.47 29.81 17.85 29.81V32.8H20.38V29.35C21.76 29.12 22.91 28.43 23.83 27.51C24.98 26.36 25.67 24.52 25.67 22.91C25.67 21.53 25.21 19.92 24.06 19C22.91 17.85 21.76 17.16 20.38 16.7ZM19 0.599976C8.88001 0.599976 0.600006 8.87998 0.600006 19C0.600006 29.12 8.88001 37.4 19 37.4C29.12 37.4 37.4 29.12 37.4 19C37.4 8.87998 29.12 0.599976 19 0.599976ZM19 34.87C10.26 34.87 3.13001 27.74 3.13001 19C3.13001 10.26 10.26 3.12998 19 3.12998C27.74 3.12998 34.87 10.26 34.87 19C34.87 27.74 27.74 34.87 19 34.87Z" fill="#4965C6"/>
</svg>
