<svg width="33" height="26" viewBox="0 0 33 26" fill="none" xmlns="http://www.w3.org/2000/svg">
<path d="M29.3753 6.47966C29.3961 6.76403 29.3961 7.04845 29.3961 7.33281C29.3961 16.0062 22.6444 26 10.3042 26C6.50245 26 2.97079 24.9234 0 23.0547C0.54016 23.1156 1.05947 23.1359 1.62042 23.1359C4.75734 23.1359 7.64506 22.1 9.95105 20.3328C7.00105 20.2719 4.52886 18.3828 3.67708 15.7828C4.09261 15.8437 4.50807 15.8843 4.94438 15.8843C5.54683 15.8843 6.14934 15.8031 6.71022 15.6609C3.63558 15.0515 1.32952 12.4109 1.32952 9.22186V9.14064C2.2228 9.62815 3.26162 9.93283 4.36259 9.97341C2.55519 8.79526 1.37109 6.78435 1.37109 4.50933C1.37109 3.2906 1.70342 2.17341 2.28515 1.19841C5.58833 5.17965 10.5535 7.77961 16.121 8.06403C16.0172 7.57653 15.9548 7.06877 15.9548 6.56095C15.9548 2.94528 18.9464 0 22.6651 0C24.5971 0 26.3421 0.792185 27.5679 2.07187C29.0844 1.78751 30.5386 1.23905 31.8267 0.487504C31.328 2.01098 30.2686 3.29066 28.8767 4.10311C30.227 3.96099 31.5359 3.59528 32.7407 3.08752C31.8268 4.38747 30.6841 5.54524 29.3753 6.47966Z" fill="white"/>
</svg>
