<svg width="27" height="28" viewBox="0 0 27 28" fill="none" xmlns="http://www.w3.org/2000/svg">
<path d="M18.405 16.3333C18.495 15.5633 18.5625 14.7933 18.5625 14C18.5625 13.2067 18.495 12.4367 18.405 11.6667H22.2075C22.3875 12.4133 22.5 13.195 22.5 14C22.5 14.805 22.3875 15.5867 22.2075 16.3333M16.4137 22.82C17.0887 21.525 17.6063 20.125 17.9663 18.6667H21.285C20.1951 20.613 18.4659 22.0873 16.4137 22.82ZM16.1325 16.3333H10.8675C10.755 15.5633 10.6875 14.7933 10.6875 14C10.6875 13.2067 10.755 12.425 10.8675 11.6667H16.1325C16.2338 12.425 16.3125 13.2067 16.3125 14C16.3125 14.7933 16.2338 15.5633 16.1325 16.3333ZM13.5 23.2867C12.5662 21.8867 11.8125 20.335 11.3512 18.6667H15.6488C15.1875 20.335 14.4338 21.8867 13.5 23.2867ZM9 9.33334H5.715C6.79371 7.38176 8.52165 5.90508 10.575 5.18001C9.9 6.47501 9.39375 7.87501 9 9.33334ZM5.715 18.6667H9C9.39375 20.125 9.9 21.525 10.575 22.82C8.52595 22.087 6.80045 20.6124 5.715 18.6667ZM4.7925 16.3333C4.6125 15.5867 4.5 14.805 4.5 14C4.5 13.195 4.6125 12.4133 4.7925 11.6667H8.595C8.505 12.4367 8.4375 13.2067 8.4375 14C8.4375 14.7933 8.505 15.5633 8.595 16.3333M13.5 4.70168C14.4338 6.10168 15.1875 7.66501 15.6488 9.33334H11.3512C11.8125 7.66501 12.5662 6.10168 13.5 4.70168ZM21.285 9.33334H17.9663C17.6141 7.88838 17.0928 6.49356 16.4137 5.18001C18.4837 5.91501 20.205 7.39668 21.285 9.33334ZM13.5 2.33334C7.27875 2.33334 2.25 7.58334 2.25 14C2.25 17.0942 3.43526 20.0617 5.54505 22.2496C6.58971 23.3329 7.8299 24.1923 9.19481 24.7786C10.5597 25.3649 12.0226 25.6667 13.5 25.6667C16.4837 25.6667 19.3452 24.4375 21.455 22.2496C23.5647 20.0617 24.75 17.0942 24.75 14C24.75 12.4679 24.459 10.9508 23.8936 9.53537C23.3283 8.1199 22.4996 6.83378 21.455 5.75043C20.4103 4.66708 19.1701 3.80772 17.8052 3.22142C16.4403 2.63511 14.9774 2.33334 13.5 2.33334Z" fill="black"/>
</svg>
