<svg width="48" height="48" viewBox="0 0 48 48" fill="none" xmlns="http://www.w3.org/2000/svg">
<rect width="48" height="48" rx="24" fill="#FF5252"/>
<path d="M24.0009 30.0357C23.2247 30.0357 22.6476 30.659 22.6476 31.4286C22.6476 32.1975 23.2774 32.8214 24.0009 32.8214C24.7772 32.8214 25.3543 32.1975 25.3543 31.4286C25.407 30.6567 24.7801 30.0357 24.0009 30.0357ZM24.0009 27.7143C24.519 27.7143 24.8856 27.299 24.8856 26.7857V18.4286C24.8856 17.9153 24.4664 17.5 24.0009 17.5C23.5355 17.5 23.0636 17.9179 23.0636 18.4286V26.7857C23.0636 27.2964 23.4854 27.7143 24.0009 27.7143ZM38.5479 32.2004L26.8424 12.589C26.2507 11.596 25.1844 11.0017 24.0009 11C22.8175 11 21.7571 11.5931 21.1595 12.5879L9.44807 32.2039C8.85928 33.1888 8.85049 34.371 9.42336 35.3669C10.0158 36.3906 11.0856 37 12.2895 37H35.7182C36.9198 37 37.9884 36.3889 38.5778 35.3651C39.1514 34.371 39.1397 33.1871 38.5479 32.2004ZM36.8958 34.3942C36.6966 34.8817 36.2338 35.1429 35.6655 35.1429H12.2895C11.7677 35.1429 11.3064 34.8826 11.0545 34.4464C10.8156 34.0311 10.8193 33.5585 11.0637 33.1488L22.7765 13.5338C23.0284 13.1102 23.4854 12.8571 24.0009 12.8571C24.0009 12.8571 24 12.8571 24.0009 12.8571C24.5144 12.858 24.9711 13.1101 25.223 13.5327L36.9345 33.1488C37.1301 33.5585 37.1887 34.0286 36.8958 34.3942Z" fill="white"/>
</svg>
