<svg width="41" height="40" viewBox="0 0 41 40" fill="none" xmlns="http://www.w3.org/2000/svg">
<path d="M15.2859 20C17.4872 20 19.2712 18.2094 19.2712 16C19.2712 13.7906 17.4872 12 15.2859 12C13.0846 12 11.3005 13.7906 11.3005 16C11.3005 18.2063 13.0877 20 15.2859 20ZM31.2273 18.5H25.2492C24.4242 18.5 23.7547 19.1719 23.7547 20C23.7547 20.8281 24.4242 21.5 25.2492 21.5H31.2273C32.0524 21.5 32.7218 20.8281 32.7218 20C32.7218 19.1719 32.0555 18.5 31.2273 18.5ZM17.2786 22H13.2932C10.5408 22 8.31152 24.2375 8.31152 27C8.31152 27.55 8.75987 28 9.30786 28H21.2639C21.8141 28 22.2602 27.5522 22.2602 27C22.2602 24.2375 20.0309 22 17.2786 22ZM31.2273 13.5H25.2492C24.4242 13.5 23.7547 14.1719 23.7547 15C23.7547 15.8281 24.4242 16.5 25.2492 16.5H31.2273C32.0524 16.5 32.7218 15.8281 32.7218 15C32.7218 14.1719 32.0555 13.5 31.2273 13.5ZM34.2163 6H6.31884C4.11756 6 2.3335 7.79063 2.3335 10V30C2.3335 32.2094 4.11756 34 6.31884 34H34.2163C36.4176 34 38.2016 32.2094 38.2016 30V10C38.2016 7.79063 36.4145 6 34.2163 6ZM35.2126 30C35.2126 30.5514 34.7656 31 34.2163 31H6.31884C5.76949 31 5.32251 30.5514 5.32251 30V10C5.32251 9.44863 5.76949 9 6.31884 9H34.2163C34.7656 9 35.2126 9.44863 35.2126 10V30Z" fill="#4DA3F0"/>
</svg>
