<svg width="40" height="40" viewBox="0 0 40 40" fill="none" xmlns="http://www.w3.org/2000/svg">
<path d="M19.4945 23.5C22.6341 23.5 25.1328 20.9537 25.1328 17.8125C25.1328 14.6713 22.5877 12.125 19.4945 12.125C16.3549 12.125 13.8562 14.6713 13.8562 17.8125C13.807 20.9516 16.3555 23.5 19.4945 23.5ZM19.4945 14.75C21.1816 14.75 22.5548 16.1237 22.5548 17.8125C22.5548 19.5012 21.1789 20.875 19.4945 20.875C17.8102 20.875 16.432 19.5023 16.432 17.8125C16.432 16.1227 17.8047 14.75 19.4945 14.75ZM30 14.75C32.4161 14.75 34.375 12.7911 34.375 10.375C34.375 7.95891 32.4172 6 30 6C27.5839 6 25.625 7.95891 25.625 10.375C25.625 12.7911 27.5828 14.75 30 14.75ZM22.2289 25.25H16.7711C12.4781 25.25 9 28.5148 9 32.5398C9 33.3492 9.69453 34 10.5531 34H28.4469C29.3055 34 30 33.3492 30 32.5398C30 28.5148 26.5219 25.25 22.2289 25.25ZM11.7398 31.375C12.3124 29.3647 14.3298 27.875 16.7241 27.875H22.2289C24.6226 27.875 26.64 29.3647 27.2131 31.375H11.7398ZM32.182 16.5H28.8002C28.1002 16.5 27.4395 16.6661 26.8391 16.9506C26.8719 17.2383 26.9266 17.5172 26.9266 17.8125C26.9266 19.656 26.2277 21.324 25.1131 22.625H36.0342C36.568 22.625 37 22.1656 37 21.6023C37 18.7859 34.8453 16.5 32.182 16.5ZM12.057 17.8125C12.057 17.5145 12.1108 17.2312 12.145 16.9424C11.5484 16.6148 10.8922 16.5 10.1977 16.5H6.81687C4.15688 16.5 2 18.7859 2 21.6023C2 22.1656 2.43132 22.625 2.96359 22.625H13.8737C12.757 21.3234 12.057 19.6555 12.057 17.8125ZM9 14.75C11.4161 14.75 13.375 12.7911 13.375 10.375C13.375 7.95891 11.4172 6 9 6C6.58391 6 4.625 7.95891 4.625 10.375C4.625 12.7911 6.58391 14.75 9 14.75Z" fill="#4DA3F0"/>
</svg>
