<svg width="41" height="40" viewBox="0 0 41 40" fill="none" xmlns="http://www.w3.org/2000/svg">
<path d="M31.4668 11.6H27.7335V9.73333C27.7335 7.67125 26.0622 6 24.0002 6H16.5335C14.4743 6 12.8002 7.67125 12.8002 9.73333V11.6H9.06683C7.00475 11.6 5.3335 13.2742 5.3335 15.3333V30.2667C5.3335 32.3288 7.00475 34 9.06683 34H31.4668C33.5289 34 35.2002 32.3288 35.2002 30.2667V15.3333C35.2002 13.2742 33.526 11.6 31.4668 11.6ZM16.5335 8.8H24.0002C24.5157 8.8 24.9335 9.21784 24.9335 9.73333V11.6H15.6002V9.73333C15.6002 9.21767 16.0202 8.8 16.5335 8.8ZM9.06683 14.4H31.4668C31.9802 14.4 32.4002 14.82 32.4002 15.3333V20.9333H8.1335V15.3333C8.1335 14.82 8.5535 14.4 9.06683 14.4ZM31.4668 31.2H9.06683C8.5535 31.2 8.1335 30.78 8.1335 30.2667V23.7333H16.5335V24.6667C16.5335 25.6974 17.3694 26.5333 18.4002 26.5333H22.1335C23.1642 26.5333 24.0002 25.6974 24.0002 24.6667V23.7333H32.4002V30.2667C32.4002 30.78 31.9802 31.2 31.4668 31.2Z" fill="#4DA3F0"/>
</svg>
