<svg width="34" height="31" viewBox="0 0 34 31" fill="none" xmlns="http://www.w3.org/2000/svg">
<path d="M0.087932 2.27591C0.219292 1.7265 0.408388 1.20538 0.814122 0.793179C1.37664 0.222937 2.07158 0.000286684 2.85444 0.000286684C8.32709 0.00135455 13.7997 -0.000781184 19.2724 0.00242242C20.0748 0.00242242 20.8805 -0.0151974 21.6792 0.0446032C22.8848 0.135372 23.8509 1.16587 23.923 2.38911C23.9521 2.88567 23.9404 3.3849 23.9404 3.88306C23.9404 3.95727 23.9224 4.05125 23.8769 4.10304C23.0972 4.98456 22.3111 5.86128 21.5262 6.738C21.5214 6.74334 21.5092 6.74227 21.4562 6.75295C21.4515 6.66005 21.4425 6.57141 21.4425 6.48278C21.4414 5.27289 21.4372 4.06246 21.4456 2.85256C21.4472 2.62351 21.4064 2.53167 21.1458 2.5322C15.0551 2.54021 8.96482 2.53861 2.87404 2.53861H2.60973C2.60232 2.66035 2.59119 2.76393 2.59119 2.86698C2.59013 11.0885 2.59119 19.31 2.58537 27.5315C2.58537 27.783 2.64628 27.861 2.90529 27.8604C8.97806 27.853 15.0514 27.853 21.1241 27.8604C21.3789 27.8604 21.4488 27.7921 21.4467 27.5353C21.4356 25.8982 21.4446 24.2607 21.4366 22.6236C21.4356 22.4122 21.4933 22.2557 21.6332 22.1009C22.3509 21.3053 23.0596 20.5012 23.7725 19.7009C23.8069 19.6624 23.8472 19.6298 23.9267 19.5556C23.9357 19.6795 23.9463 19.7607 23.9463 19.8418C23.9473 22.449 23.9473 25.0557 23.9473 27.6629C23.9473 28.7537 23.5119 29.6091 22.5294 30.0907C22.1469 30.2781 21.6829 30.3795 21.256 30.3806C15.1038 30.3982 8.95158 30.3945 2.79883 30.3908C1.40577 30.3897 0.45341 29.6133 0.128717 28.2401C0.118653 28.1984 0.101174 28.1584 0.0874023 28.1173C0.0874023 19.5033 0.0874023 10.8888 0.0874023 2.27485L0.087932 2.27591ZM33.2458 5.42613C33.0657 5.1378 32.9344 4.79769 32.6966 4.57023C31.8215 3.73302 30.9216 2.92144 30.009 2.12534C29.5842 1.75533 29.0608 1.65762 28.5513 1.92512C28.2727 2.07142 28.0343 2.31489 27.8129 2.54875C27.3516 3.03624 26.914 3.54614 26.4485 4.06726C28.0624 5.52544 29.6599 6.9692 31.2717 8.4263C31.5286 8.13958 31.7791 7.87742 32.0101 7.59817C32.446 7.07118 33.0001 6.63335 33.2458 5.96059V5.42666V5.42613ZM28.2499 3.97062C28.5327 3.6524 28.7997 3.35179 29.091 3.02396C29.5021 3.39077 29.8967 3.73889 30.287 4.09129C30.8183 4.5713 31.3485 5.05237 31.8713 5.54146C31.9195 5.58684 31.955 5.72726 31.9253 5.76304C31.6902 6.04709 31.438 6.31619 31.1721 6.61039C30.1938 5.72673 29.2335 4.85855 28.2499 3.97009V3.97062ZM29.1837 10.7767C27.5677 9.31584 25.9702 7.87208 24.3583 6.41497C20.9372 10.2593 17.5398 14.0775 14.1218 17.918C15.7346 19.3768 17.3316 20.8211 18.9471 22.2824C22.3678 18.4376 25.7699 14.6135 29.1837 10.7767ZM23.0077 11.9118C22.4171 12.5835 21.8201 13.2493 21.2258 13.9178C20.0076 15.2868 18.7798 16.6473 17.5774 18.0307C17.1219 18.5545 16.848 18.374 16.4555 17.8556C16.3337 17.6949 16.4174 17.5149 16.5451 17.3708C17.097 16.7487 17.6484 16.1262 18.2014 15.5047C19.4429 14.1084 20.685 12.7127 21.9277 11.317C22.0161 11.2177 22.1114 11.1248 22.1946 11.0218C22.3297 10.8536 22.4939 10.7692 22.7057 10.8392C22.942 10.9171 23.2524 11.293 23.2497 11.5648C23.1957 11.6433 23.1152 11.789 23.0077 11.9113V11.9118ZM23.6851 9.72696C23.6004 9.51019 23.6761 9.33399 23.8324 9.17541C23.9685 9.03766 24.0861 8.88121 24.2233 8.74399C24.4346 8.53202 24.5935 8.52348 24.8276 8.69647C24.8981 8.7488 24.9701 8.80112 25.0332 8.86199C25.2938 9.11508 25.3112 9.29288 25.0851 9.57586C24.9421 9.75473 24.7847 9.92399 24.6205 10.0831C24.549 10.152 24.4431 10.1851 24.3975 10.2102C24.165 10.215 23.7625 9.92505 23.6851 9.72696ZM17.7781 8.44926C17.9365 8.44926 18.0965 8.44285 18.2527 8.42043C18.9101 8.32539 19.3889 7.66918 19.2898 7.00924C19.1871 6.32474 18.6749 5.91628 17.9122 5.91574C13.9846 5.91468 10.0565 5.91574 6.12892 5.91574C6.07595 5.91574 6.02298 5.91414 5.97002 5.91788C5.35983 5.96113 4.87676 6.33915 4.76023 6.86294C4.63205 7.44066 4.85345 8.01304 5.36777 8.26666C5.61036 8.38626 5.90751 8.44072 6.1803 8.44285C8.1131 8.45727 10.0464 8.45033 11.9792 8.45086C13.912 8.45086 15.8453 8.45193 17.7781 8.44979V8.44926ZM17.2765 11.2348C13.5344 11.2348 9.79218 11.2343 6.05 11.2364C5.91016 11.2364 5.76503 11.2444 5.63102 11.2818C5.01289 11.4537 4.65906 12.0266 4.74434 12.6988C4.81902 13.2899 5.36141 13.748 6.02245 13.7491C9.05857 13.7539 12.0947 13.7528 15.1308 13.7454C15.2367 13.7454 15.3692 13.6813 15.4439 13.6028C15.7558 13.2766 16.0514 12.9343 16.3512 12.5969C16.7373 12.1628 17.1219 11.7276 17.5451 11.2497C17.4148 11.2417 17.3454 11.2343 17.276 11.2343L17.2765 11.2348ZM12.511 16.4663C10.4188 16.4663 8.32709 16.4663 6.23486 16.4663C6.12892 16.4663 6.02298 16.4652 5.91758 16.4732C5.21363 16.5245 4.71203 17.0659 4.72792 17.7547C4.74381 18.4456 5.26501 18.9827 5.96631 18.9865C7.74073 18.9966 9.51463 18.9918 11.2891 18.987C11.3632 18.987 11.4723 18.9475 11.5052 18.8914C11.9564 18.1097 12.3977 17.3211 12.8797 16.4663C12.7171 16.4663 12.6143 16.4663 12.5115 16.4663H12.511ZM13.4629 18.8524C13.1217 20.0479 12.7806 21.2434 12.4411 22.4394C12.2568 23.0887 12.0619 23.7347 11.8955 24.3888C11.7552 24.9404 12.1858 25.3643 12.7361 25.2351C12.8723 25.203 13.0047 25.1491 13.135 25.0957C14.4968 24.5351 15.8586 23.9734 17.2193 23.4101C17.588 23.2574 17.9535 23.0983 18.3576 22.9258C16.7368 21.4607 15.1605 20.0356 13.5534 18.5833C13.5116 18.7072 13.484 18.7793 13.4634 18.853L13.4629 18.8524ZM16.7839 22.6508C16.4836 22.7811 16.232 22.8938 15.9778 22.9995C15.5784 23.1645 15.1806 23.3327 14.7749 23.48C14.6901 23.511 14.5455 23.4913 14.4782 23.4341C14.1281 23.1373 13.7907 22.8249 13.4576 22.5083C13.4046 22.4581 13.3559 22.3492 13.3728 22.2856C13.5587 21.6011 13.7579 20.9204 13.9549 20.2391C13.9618 20.2161 13.9819 20.1969 14.0158 20.1462C14.9285 20.9716 15.8337 21.7907 16.7839 22.6503V22.6508ZM10.6672 21.7715C10.4892 21.7715 10.3595 21.7715 10.2297 21.7715C8.83611 21.7715 7.44305 21.7677 6.04947 21.7736C5.354 21.7768 4.82061 22.2125 4.74434 22.819C4.63734 23.6648 5.17232 24.282 6.04152 24.2922C6.9674 24.3028 7.89328 24.2948 8.81916 24.2948C9.19735 24.2948 9.57554 24.2948 9.95903 24.2948C10.1974 23.4443 10.4262 22.629 10.6667 21.7715H10.6672ZM29.6551 10.2513C30.0529 9.80225 30.4311 9.37457 30.8331 8.92072C29.2203 7.46148 27.6254 6.01879 26.0125 4.56008C25.6132 5.00859 25.2323 5.4368 24.8287 5.88958C26.4453 7.35042 28.0428 8.79472 29.6546 10.2513H29.6551Z" fill="#4DA3F0"/>
</svg>
