<svg width="90" height="88" viewBox="0 0 90 88" fill="none" xmlns="http://www.w3.org/2000/svg">
<path opacity="0.3" d="M80 20V60C80 66.3167 77.0833 71.9333 72.5167 75.6C69.0833 78.3667 64.7333 80 60 80H20C16.5667 80 13.3167 79.1333 10.4833 77.6C4.23332 74.2167 0 67.6 0 60V20C0 19.5167 0.0166646 19.05 0.049998 18.5667C0.049998 18.5167 0.0666555 18.45 0.0666555 18.4C0.883322 8.11667 9.48333 0 20 0H60C70.5167 0 79.1167 8.11667 79.9333 18.4C79.9333 18.45 79.9333 18.5167 79.9333 18.5667C79.9667 19.05 79.9833 19.5167 79.9833 20H80Z" fill="#4DA3F0"/>
<path d="M80 20V39.8667C78.2833 40.7667 76.5 41.4833 74.6666 41.9333C61.2666 45.2333 55.6333 32.3333 55.6333 32.3333C35.6666 36.35 24.8667 21.2667 24.8667 21.2667C14.2333 31.9 5.3 32.9167 0 32.1167V20C0 19.5167 0.0166646 19.05 0.049998 18.5667C0.049998 18.5167 0.0666555 18.45 0.0666555 18.4C0.883322 8.11667 9.48333 0 20 0H60C70.5167 0 79.1167 8.11667 79.9333 18.4C79.9333 18.45 79.9333 18.5167 79.9333 18.5667C79.9667 19.05 79.9833 19.5167 79.9833 20H80Z" fill="url(#paint0_linear_69_3)"/>
<path d="M45.3177 51.9922C45.3177 69.1422 20.2344 69.1422 20.2344 51.9922H45.3177Z" fill="url(#paint1_linear_69_3)"/>
<rect x="61" y="59" width="28" height="28" rx="14" fill="#4DA3F0"/>
<path d="M75 66C75.2321 66 75.4546 66.0922 75.6187 66.2563C75.7828 66.4204 75.875 66.6429 75.875 66.875V72.125H81.125C81.3571 72.125 81.5796 72.2172 81.7437 72.3813C81.9078 72.5454 82 72.7679 82 73C82 73.2321 81.9078 73.4546 81.7437 73.6187C81.5796 73.7828 81.3571 73.875 81.125 73.875H75.875V79.125C75.875 79.3571 75.7828 79.5796 75.6187 79.7437C75.4546 79.9078 75.2321 80 75 80C74.7679 80 74.5454 79.9078 74.3813 79.7437C74.2172 79.5796 74.125 79.3571 74.125 79.125V73.875H68.875C68.6429 73.875 68.4204 73.7828 68.2563 73.6187C68.0922 73.4546 68 73.2321 68 73C68 72.7679 68.0922 72.5454 68.2563 72.3813C68.4204 72.2172 68.6429 72.125 68.875 72.125H74.125V66.875C74.125 66.6429 74.2172 66.4204 74.3813 66.2563C74.5454 66.0922 74.7679 66 75 66V66Z" fill="white"/>
<rect x="61" y="59" width="28" height="28" rx="14" stroke="white" stroke-width="2"/>
<defs>
<linearGradient id="paint0_linear_69_3" x1="2.98023e-06" y1="42.4735" x2="35.1828" y2="-23.7943" gradientUnits="userSpaceOnUse">
<stop stop-color="#4E2E99"/>
<stop offset="1" stop-color="#4DA3F0"/>
</linearGradient>
<linearGradient id="paint1_linear_69_3" x1="20.2344" y1="64.8547" x2="30.6794" y2="44.4858" gradientUnits="userSpaceOnUse">
<stop stop-color="#4E2E99"/>
<stop offset="1" stop-color="#4DA3F0"/>
</linearGradient>
</defs>
</svg>
