<svg width="40" height="40" viewBox="0 0 40 40" fill="none" xmlns="http://www.w3.org/2000/svg">
<path d="M18.2034 11.266L18.2037 13.9367L19.8768 15.5675C19.5007 13.6567 20.0679 11.7115 21.4349 10.3415C22.5423 9.23191 24.0118 8.63572 25.5359 8.63572L25.5974 8.63571L22.4143 11.7646L23.2418 16.7297L28.1976 17.5577L31.3279 14.4206C31.3417 15.9686 30.7471 17.4613 29.6194 18.5846C29.1136 19.0983 28.5191 19.4887 27.8831 19.7699C27.9788 19.8589 28.095 19.9287 28.1907 20.0245L29.8658 21.7079C30.44 21.3586 30.9869 20.9407 31.4791 20.4476C33.5567 18.4146 34.4109 15.2835 33.6999 12.4199C33.5358 11.7486 33.0229 11.2215 32.3667 11.0368C31.6967 10.852 30.9858 11.0438 30.5565 11.5301L27.3442 14.7423L25.5739 14.4479L25.2798 12.6671L28.4856 9.46145C28.9709 9.0176 29.1555 8.30524 28.9707 7.64768C28.7929 6.98355 28.2598 6.46955 27.5899 6.30571C24.6849 5.5802 21.6891 6.41585 19.5781 8.52552C19.0176 9.08719 18.5664 9.71735 18.1907 10.3393L18.2522 10.3804L18.2034 11.266ZM11.7995 30.8722C11.1022 31.5709 9.87177 31.5709 9.16794 30.8724C8.81931 30.5232 8.62107 30.0998 8.62107 29.6066C8.62102 29.1067 8.81237 28.6411 9.16778 28.3408L16.519 20.8828L14.6651 19.0252L7.31513 26.3789C6.46748 27.2282 6.05185 28.3581 6.00318 29.5078C5.95451 30.6574 6.46819 31.8361 7.31568 32.6854C8.16333 33.5348 9.29099 34 10.4383 34C11.6343 33.9999 12.7626 33.5341 13.6097 32.6849L19.1276 27.1559C18.6012 26.2863 18.3002 25.2999 18.2729 24.2999L11.7995 30.8722ZM33.4065 27.6776L27.0026 21.2663C25.7377 19.9994 23.8499 19.7512 22.3329 20.5047L16.4534 14.6579V11.2599L9.50263 6L6.00263 9.45767L11.2526 16.4223L14.6454 16.4227L20.4806 22.2641C19.7358 23.7847 19.9765 25.6763 21.2413 26.9432L27.6397 33.3598C28.4327 34.161 29.7293 34.161 30.5223 33.3598L33.4071 30.4692C34.1995 29.7653 34.1995 28.4721 33.4065 27.6776Z" fill="#4DA3F0"/>
</svg>
