<svg width="41" height="40" viewBox="0 0 41 40" fill="none" xmlns="http://www.w3.org/2000/svg">
<g clip-path="url(#clip0_51_313)">
<path d="M32.4954 11.6658C31.3298 10.3574 28.5088 7.66681 24.5364 7.05383C23.0769 6.83627 21.5922 7.28773 20.4233 8.23503C19.2563 7.34378 17.7709 6.88648 16.305 7.10961C11.1352 7.90811 7.88544 12.256 7.74922 12.4441C7.24042 13.1376 7.39045 14.1125 8.08166 14.6217C8.35935 14.8265 8.68368 14.9238 9.0021 14.9238C9.48249 14.9238 9.95497 14.7048 10.2592 14.2892C10.2855 14.2528 12.8661 10.7923 16.7782 10.1878C17.2619 10.1255 17.7499 10.2313 18.1767 10.4786L14.4044 14.3317C13.6001 15.1296 13.1006 16.1415 13.1006 17.335C13.1006 18.4701 13.5425 19.5365 14.3434 20.3376C15.2023 21.1426 16.2661 21.5253 17.4012 21.5253C18.5363 21.5253 19.6027 21.0834 20.4051 20.2805L21.1413 19.5443L29.1976 26.0892C29.3476 26.2109 29.3699 26.4298 29.2301 26.6062L27.4339 28.9252C27.3143 29.0711 27.0934 29.0934 26.9698 28.9941L25.5284 27.7818L23.8296 29.5818C23.6776 29.7683 23.483 29.8129 23.3817 29.823C23.2742 29.8332 23.0857 29.8311 22.9398 29.7115L20.8375 27.9173L19.8207 28.8681L19.6383 29.0586C19.2592 29.5229 18.7243 29.815 18.1282 29.876C17.514 29.9287 16.9444 29.7624 16.539 29.436L10.7136 24.1653H5.89407V11.7436H-0.333008V28.3232L3.81838 28.3258C4.5799 28.3258 5.21753 27.8908 5.57883 27.2789H9.51227L14.5108 31.7974C15.4747 32.5849 16.6552 33 17.8812 33C18.0677 33 18.2562 32.9919 18.4427 32.9716C19.3261 32.8804 20.1558 32.5783 20.8732 32.0959L20.932 32.1486C21.7123 32.7893 22.7015 33.0834 23.7011 32.9776C24.5566 32.8884 25.3409 32.5215 25.9007 31.9819C27.2687 32.5131 28.8903 32.134 29.8737 30.9136L31.6698 28.5947C32.8679 27.1144 32.6408 24.9311 31.161 23.7291L23.3577 17.3879L23.9013 16.8442C24.5094 16.236 24.5094 15.2504 23.9013 14.6426C23.2932 14.0345 22.3082 14.0345 21.6998 14.6426L18.2055 18.1328C17.7774 18.5674 17.0315 18.5674 16.6034 18.1328C16.3885 17.92 16.2709 17.6362 16.2709 17.3344C16.2709 17.0303 16.3885 16.7464 16.6135 16.5216L22.1861 10.8368C22.6928 10.3279 23.388 10.0746 24.0633 10.1862C27.939 10.7842 30.5628 14.2552 30.5887 14.2915C30.789 14.561 31.0599 14.7421 31.3567 14.8348H34.9538V26.1928C34.9538 27.3389 35.8833 28.2717 36.9711 28.2717L41.1809 28.3297V11.7306L32.4954 11.6658ZM2.78053 26.254C2.21296 26.254 1.74269 25.784 1.74269 25.2168C1.74269 24.6411 2.21296 24.1796 2.78053 24.1796C3.34811 24.1796 3.81838 24.6453 3.81838 25.2226C3.81838 25.787 3.34811 26.254 2.78053 26.254ZM38.0673 26.254C37.4998 26.254 37.0295 25.784 37.0295 25.2168C37.0295 24.6411 37.4998 24.1796 38.0673 24.1796C38.6349 24.1796 39.1052 24.6412 39.1052 25.2168C39.1052 25.787 38.6381 26.254 38.0673 26.254Z" fill="#4DA3F0"/>
</g>
<defs>
<clipPath id="clip0_51_313">
<rect width="40" height="40" fill="white" transform="translate(0.666992)"/>
</clipPath>
</defs>
</svg>
