<svg width="41" height="40" viewBox="0 0 41 40" fill="none" xmlns="http://www.w3.org/2000/svg">
<path d="M37.4212 9.59323C36.6405 9.09178 35.6689 9.02509 34.8293 9.41123L27.8337 12.6198V11.3333C27.8337 8.93984 25.8938 7 23.5003 7H8.00033C5.60684 7 3.66699 8.93984 3.66699 11.3333V28.6667C3.66699 31.0602 5.60684 33 8.00033 33H23.5003C25.8938 33 27.8337 31.0602 27.8337 28.6667V27.3789L34.8279 30.5855C35.1898 30.7516 35.5748 30.8341 35.958 30.8341C36.4679 30.8341 36.975 30.6892 37.4198 30.4036C38.1998 29.9057 38.667 29.0526 38.667 28.0641V11.875C38.667 10.9474 38.1998 10.101 37.4212 9.59323ZM24.5837 28.6667C24.5837 29.264 24.0976 29.75 23.5003 29.75H8.00033C7.403 29.75 6.91699 29.264 6.91699 28.6667V11.3333C6.91699 10.736 7.403 10.25 8.00033 10.25H23.5003C24.0976 10.25 24.5837 10.736 24.5837 11.3333V28.6667ZM35.417 27.2786L27.8337 23.8052V16.1948L35.417 12.7193V27.2786Z" fill="#4DA3F0"/>
</svg>
