<svg width="42" height="40" viewBox="0 0 42 40" fill="none" xmlns="http://www.w3.org/2000/svg">
<path d="M13.7219 32.2079C13.7219 32.3734 13.5316 32.5057 13.2918 32.5057C13.0188 32.5305 12.8286 32.3982 12.8286 32.2079C12.8286 32.0425 13.0188 31.9102 13.2587 31.9102C13.5068 31.8854 13.7219 32.0177 13.7219 32.2079ZM11.1495 31.8357C11.0916 32.0012 11.2571 32.1914 11.5052 32.241C11.7203 32.3237 11.9684 32.241 12.018 32.0756C12.0676 31.9102 11.9105 31.7199 11.6624 31.6455C11.4473 31.5876 11.2074 31.6703 11.1495 31.8357ZM14.8054 31.6951C14.5655 31.753 14.4001 31.9102 14.4249 32.1004C14.4497 32.2658 14.6648 32.3734 14.9129 32.3155C15.1528 32.2576 15.3182 32.1004 15.2934 31.935C15.2686 31.7778 15.0453 31.6703 14.8054 31.6951ZM20.2478 0C8.77571 0 0 8.70954 0 20.1817C0 29.3544 5.77328 37.2037 14.0196 39.9663C15.0783 40.1565 15.4505 39.5031 15.4505 38.9655C15.4505 38.4527 15.4257 35.6239 15.4257 33.887C15.4257 33.887 9.63591 35.1277 8.42005 31.4222C8.42005 31.4222 7.47714 29.0153 6.12067 28.3949C6.12067 28.3949 4.22657 27.0964 6.25301 27.1212C6.25301 27.1212 8.31253 27.2866 9.44568 29.2551C11.2571 32.4478 14.2926 31.5297 15.4754 30.9838C15.6656 29.6604 16.2032 28.7423 16.7987 28.1964C12.1752 27.6836 7.51022 27.0136 7.51022 19.0568C7.51022 16.7822 8.13883 15.6408 9.46222 14.1851C9.24717 13.6474 8.54412 11.4308 9.67727 8.56893C11.4059 8.03131 15.3844 10.8021 15.3844 10.8021C17.0386 10.339 18.8169 10.0991 20.5787 10.0991C22.3404 10.0991 24.1187 10.339 25.773 10.8021C25.773 10.8021 29.7514 8.02304 31.4801 8.56893C32.6132 11.439 31.9102 13.6474 31.6951 14.1851C33.0185 15.6491 33.8291 16.7905 33.8291 19.0568C33.8291 27.0385 28.9574 27.6753 24.3338 28.1964C25.0947 28.8498 25.7399 30.0905 25.7399 32.0342C25.7399 34.8216 25.7151 38.2707 25.7151 38.9489C25.7151 39.4866 26.0955 40.14 27.146 39.9498C35.4172 37.2037 41.025 29.3544 41.025 20.1817C41.025 8.70954 31.7199 0 20.2478 0ZM8.03958 28.5273C7.93205 28.61 7.95687 28.8002 8.09748 28.9574C8.22982 29.0897 8.42005 29.1476 8.52758 29.0401C8.6351 28.9574 8.61029 28.7671 8.46968 28.61C8.33734 28.4776 8.1471 28.4197 8.03958 28.5273ZM7.14629 27.8573C7.08839 27.9648 7.1711 28.0972 7.33653 28.1799C7.46887 28.2626 7.63429 28.2378 7.69219 28.122C7.75009 28.0145 7.66738 27.8821 7.50195 27.7994C7.33653 27.7498 7.20419 27.7746 7.14629 27.8573ZM9.82615 30.8018C9.69381 30.9094 9.74344 31.1575 9.93368 31.3147C10.1239 31.5049 10.3638 31.5297 10.4713 31.3974C10.5788 31.2898 10.5292 31.0417 10.3638 30.8846C10.1818 30.6943 9.93368 30.6695 9.82615 30.8018ZM8.88324 29.586C8.7509 29.6687 8.7509 29.8837 8.88324 30.074C9.01558 30.2642 9.2389 30.3469 9.34642 30.2642C9.47876 30.1567 9.47876 29.9416 9.34642 29.7514C9.23063 29.5612 9.01558 29.4785 8.88324 29.586Z" fill="black"/>
</svg>
