<svg width="48" height="48" viewBox="0 0 48 48" fill="none" xmlns="http://www.w3.org/2000/svg">
<path d="M18.6742 3.85205C16.4651 3.85205 14.6744 5.64314 14.6744 7.85192C14.6739 8.37667 14.777 8.89638 14.9777 9.38138C15.1784 9.86638 15.4729 10.3072 15.8443 10.6786C16.2157 11.05 16.6568 11.3448 17.1423 11.5461C17.6279 11.7474 18.1484 11.8513 18.6742 11.8518H22.6746V7.85192C22.6755 6.79209 22.2545 5.77531 21.5043 5.02521C20.7541 4.2751 19.7361 3.85311 18.6742 3.85205ZM18.6742 14.5184H8.00755C5.79842 14.5184 4.00781 16.3095 4.00781 18.5189C4.00781 20.7277 5.79842 22.5188 8.00755 22.5188H18.6749C20.8833 22.5188 22.6746 20.7277 22.6746 18.5189C22.6746 16.3095 20.8833 14.5184 18.6742 14.5184Z" fill="#097EFF"/>
<path d="M44.0076 18.5189C44.0076 16.3095 42.2163 14.5184 40.0072 14.5184C37.7981 14.5184 36.0075 16.3095 36.0075 18.5189V22.5188H40.0072C41.0691 22.5177 42.0871 22.0957 42.8373 21.3456C43.5875 20.5955 44.0085 19.5788 44.0076 18.5189ZM33.341 18.5189V7.85192C33.3419 6.79209 32.9209 5.77531 32.1707 5.02521C31.4205 4.2751 30.4025 3.85311 29.3406 3.85205C27.1314 3.85205 25.3408 5.64314 25.3408 7.85192V18.5183C25.3408 20.7284 27.1314 22.5195 29.3406 22.5195C30.4025 22.5184 31.4205 22.0964 32.1707 21.3463C32.9209 20.5962 33.3419 19.5794 33.341 18.5196" fill="#097EFF"/>
<path d="M29.3406 43.8518C30.4025 43.8507 31.4205 43.4287 32.1707 42.6786C32.9209 41.9285 33.3419 40.9118 33.341 39.8519C33.3419 38.7921 32.9209 37.7753 32.1707 37.0252C31.4205 36.2751 30.4025 35.8531 29.3406 35.8521H25.3408V39.8519C25.3408 42.0607 27.1314 43.8518 29.3406 43.8518ZM29.3406 33.1855H40.0079C42.2163 33.1855 44.0076 31.3944 44.0076 29.1849C44.0085 28.1251 43.5875 27.1083 42.8373 26.3582C42.0871 25.6081 41.0691 25.1861 40.0072 25.1851H29.3406C27.1314 25.1851 25.3408 26.9761 25.3408 29.1849C25.3403 29.7097 25.4433 30.2294 25.6441 30.7144C25.8448 31.1994 26.1392 31.6402 26.5107 32.0116C26.8821 32.383 27.3231 32.6778 27.8087 32.8791C28.2943 33.0804 28.8148 33.1843 29.3406 33.1848" fill="#ECB12F"/>
<path d="M4.00781 29.1849C4.00729 29.7097 4.11032 30.2294 4.31104 30.7144C4.51176 31.1994 4.80624 31.6402 5.17765 32.0116C5.54906 32.383 5.99013 32.6778 6.47569 32.8791C6.96124 33.0804 7.48177 33.1843 8.00755 33.1848C9.06948 33.1837 10.0875 32.7618 10.8377 32.0116C11.5879 31.2615 12.0088 30.2448 12.008 29.1849V25.1851H8.00755C5.79842 25.1851 4.00781 26.9761 4.00781 29.1849ZM14.6744 29.1849V39.8513C14.6744 42.0607 16.4651 43.8518 18.6742 43.8518C19.7361 43.8507 20.7541 43.4287 21.5043 42.6786C22.2545 41.9285 22.6755 40.9118 22.6746 39.8519V29.1849C22.6751 28.6601 22.5721 28.1404 22.3713 27.6553C22.1705 27.1703 21.876 26.7294 21.5045 26.358C21.133 25.9866 20.6919 25.6918 20.2063 25.4906C19.7206 25.2893 19.2 25.1855 18.6742 25.1851C16.4651 25.1851 14.6744 26.9761 14.6744 29.1849Z" fill="#ECB12F"/>
</svg>
