<svg width="40" height="40" viewBox="0 0 40 40" fill="none" xmlns="http://www.w3.org/2000/svg">
<rect width="40" height="40" rx="20" fill="#4DA3F0"/>
<g clip-path="url(#clip0_75_1312)">
<path d="M20 7C12.8195 7 7 12.8195 7 20C7 27.1805 12.8195 33 20 33C27.1805 33 33 27.1805 33 20C33 12.8195 27.1805 7 20 7ZM20 31.375C13.7285 31.375 8.625 26.2715 8.625 20C8.625 13.7285 13.7285 8.625 20 8.625C26.2715 8.625 31.375 13.7285 31.375 20C31.375 26.2715 26.2715 31.375 20 31.375ZM20 16.3438C20.6729 16.3438 21.2188 15.7984 21.2188 15.125C21.2188 14.4521 20.6729 13.9062 20 13.9062C19.3271 13.9062 18.7812 14.4496 18.7812 15.125C18.7812 15.8004 19.3246 16.3438 20 16.3438ZM22.4375 24.875H20.8125V19.1875C20.8125 18.7406 20.4469 18.375 20 18.375H18.375C17.9281 18.375 17.5625 18.7406 17.5625 19.1875C17.5625 19.6344 17.9281 20 18.375 20H19.1875V24.875H17.5625C17.1156 24.875 16.75 25.2406 16.75 25.6875C16.75 26.1344 17.1156 26.5 17.5625 26.5H22.4375C22.8862 26.5 23.25 26.1362 23.25 25.6875C23.25 25.2406 22.8844 24.875 22.4375 24.875Z" fill="white"/>
</g>
<defs>
<clipPath id="clip0_75_1312">
<rect width="26" height="26" fill="white" transform="translate(7 7)"/>
</clipPath>
</defs>
</svg>
