<svg width="48" height="48" viewBox="0 0 48 48" fill="none" xmlns="http://www.w3.org/2000/svg">
<path d="M42.1236 40.2501H5.87493C4.84372 40.2501 4 41.0939 4 42.1251C4 43.1563 4.84372 44 5.87493 44H42.1236C43.1548 44 43.9986 43.1563 43.9986 42.1251C43.9986 41.0939 43.1548 40.2501 42.1236 40.2501ZM39.6237 37.7502C40.6549 37.7502 41.4986 36.9065 41.4986 35.8753C41.4986 34.8441 40.6549 34.0004 39.6237 34.0004H8.37484C7.34363 34.0004 6.49991 34.8441 6.49991 35.8753C6.49991 36.9065 7.34363 37.7502 8.37484 37.7502H39.6237ZM42.8424 11.6426L24.718 4.14285C24.259 3.95238 23.7438 3.95238 23.2852 4.14285L5.1609 11.6426C4.45655 11.9308 4 12.6183 4 13.3761V18.3759C4 19.415 4.83981 20.2509 5.87493 20.2509H8.99982V31.5005H12.7497V20.2509H17.7495V31.5005H21.4994V20.2509H26.4992V31.5005H30.2491V20.2509H35.2489V31.5005H38.9987V20.2509H42.1236C43.1627 20.2509 43.9986 19.415 43.9986 18.3759V13.3761C43.9986 12.6183 43.5455 11.9308 42.8424 11.6426ZM40.2487 16.501H27.5226C27.6554 16.0401 27.7491 15.6885 27.7491 15.251C27.7491 13.1808 26.0695 11.5012 23.9993 11.5012C21.929 11.5012 20.2494 13.1808 20.2494 15.251C20.2494 15.6917 20.3393 16.108 20.4789 16.501H7.74986V14.6261L23.9993 7.90521L40.2487 14.6284V16.501Z" fill="#4DA3F0"/>
</svg>
