<svg width="48" height="48" viewBox="0 0 48 48" fill="none" xmlns="http://www.w3.org/2000/svg">
<path d="M47.2761 29.8059C44.0706 42.663 31.0485 50.4877 18.1899 47.2815C5.33654 44.076 -2.48813 31.0531 0.718838 18.1968C3.92281 5.33814 16.9449 -2.48728 29.7998 0.71819C42.6577 3.92366 50.4816 16.948 47.2761 29.8059Z" fill="#F7931A"/>
<path d="M34.5756 20.5804C35.0533 17.387 32.6218 15.6702 29.2971 14.525L30.3756 10.199L27.7424 9.54279L26.6924 13.7548C26.0001 13.5823 25.2891 13.4195 24.5827 13.2583L25.6401 9.01855L23.0084 8.3623L21.9292 12.6868C21.3562 12.5563 20.7937 12.4273 20.2477 12.2915L20.2507 12.278L16.6192 11.3713L15.9187 14.1837C15.9187 14.1837 17.8725 14.6315 17.8312 14.6592C18.8977 14.9255 19.0905 15.6312 19.0582 16.1907L17.8297 21.1189C17.9032 21.1377 17.9985 21.1647 18.1035 21.2067C18.0157 21.1849 17.922 21.1609 17.8252 21.1377L16.1032 28.0414C15.9727 28.3654 15.642 28.8513 14.8965 28.6668C14.9228 28.7051 12.9825 28.1891 12.9825 28.1891L11.6753 31.2033L15.102 32.0576C15.7395 32.2173 16.3642 32.3846 16.9792 32.5421L15.8895 36.9175L18.5197 37.5738L19.599 33.2448C20.3174 33.4398 21.0149 33.6198 21.6974 33.7893L20.6219 38.098L23.2552 38.7542L24.3449 34.387C28.8351 35.2368 32.2116 34.894 33.6328 30.8328C34.7781 27.5629 33.5758 25.6766 31.2133 24.4466C32.9338 24.0499 34.2298 22.9182 34.5756 20.5804ZM28.5591 29.0171C27.7454 32.2871 22.2397 30.5193 20.4547 30.0761L21.9007 24.2794C23.6857 24.7249 29.4096 25.6069 28.5591 29.0171ZM29.3736 20.5332C28.6311 23.5077 24.0487 21.9964 22.5622 21.6259L23.8732 16.3685C25.3596 16.739 30.1468 17.4305 29.3736 20.5332Z" fill="white"/>
</svg>
