<svg width="30" height="30" viewBox="0 0 30 30" fill="none" xmlns="http://www.w3.org/2000/svg">
<circle cx="15" cy="15" r="15" fill="white" fill-opacity="0.12"/>
<path d="M19.9723 18.8391C20.3016 19.1685 20.3016 19.7029 19.9723 20.0323C19.6429 20.3617 19.1085 20.3617 18.7791 20.0323L14.625 15.8473L10.4414 20.0309C10.112 20.3603 9.57761 20.3603 9.24819 20.0309C8.91878 19.7015 8.91882 19.1671 9.24819 18.8377L13.4332 14.6555L9.24703 10.4403C8.91766 10.1109 8.91766 9.57646 9.24703 9.24705C9.57641 8.91763 10.1108 8.91767 10.4402 9.24705L14.625 13.4637L18.8086 9.28009C19.138 8.95072 19.6724 8.95072 20.0018 9.28009C20.3312 9.60947 20.3312 10.1439 20.0018 10.4733L15.8168 14.6555L19.9723 18.8391Z" fill="white"/>
</svg>
