<svg width="30" height="30" viewBox="0 0 30 30" fill="none" xmlns="http://www.w3.org/2000/svg">
<rect width="30" height="30" rx="15" fill="#4DA3F0"/>
<path d="M15 6C10.0289 6 6 10.0289 6 15C6 19.9711 10.0289 24 15 24C19.9711 24 24 19.9711 24 15C24 10.0289 19.9711 6 15 6ZM15 22.875C10.6582 22.875 7.125 19.3418 7.125 15C7.125 10.6582 10.6582 7.125 15 7.125C19.3418 7.125 22.875 10.6582 22.875 15C22.875 19.3418 19.3418 22.875 15 22.875ZM15 12.4688C15.4658 12.4688 15.8438 12.0912 15.8438 11.625C15.8438 11.1592 15.4658 10.7812 15 10.7812C14.5342 10.7812 14.1562 11.1574 14.1562 11.625C14.1562 12.0926 14.5324 12.4688 15 12.4688ZM16.6875 18.375H15.5625V14.4375C15.5625 14.1281 15.3094 13.875 15 13.875H13.875C13.5656 13.875 13.3125 14.1281 13.3125 14.4375C13.3125 14.7469 13.5656 15 13.875 15H14.4375V18.375H13.3125C13.0031 18.375 12.75 18.6281 12.75 18.9375C12.75 19.2469 13.0031 19.5 13.3125 19.5H16.6875C16.9981 19.5 17.25 19.2481 17.25 18.9375C17.25 18.6281 16.9969 18.375 16.6875 18.375Z" fill="white"/>
</svg>
