<svg width="48" height="48" viewBox="0 0 48 48" fill="none" xmlns="http://www.w3.org/2000/svg">
<path d="M37.9721 13.8204C38.0791 8.2554 33.4871 3.9834 27.1731 3.9834H14.1151C13.8108 3.9835 13.5164 4.09223 13.285 4.29004C13.0537 4.48784 12.9005 4.76173 12.8531 5.0624L7.62014 37.7584C7.59673 37.9065 7.60571 38.058 7.64645 38.2024C7.6872 38.3467 7.75874 38.4805 7.85615 38.5946C7.95357 38.7086 8.07454 38.8002 8.21075 38.863C8.34695 38.9258 8.49515 38.9584 8.64514 38.9584H16.3821L15.1721 46.5304C15.1487 46.6786 15.1577 46.8302 15.1985 46.9746C15.2393 47.119 15.311 47.2529 15.4085 47.3669C15.506 47.481 15.6271 47.5726 15.7634 47.6353C15.8998 47.6981 16.0481 47.7305 16.1981 47.7304H22.5001C22.8051 47.7304 23.0761 47.6204 23.3071 47.4234C23.5381 47.2254 23.5761 46.9524 23.6231 46.6514L25.4731 35.7664C25.5201 35.4664 25.6731 35.0764 25.9051 34.8784C26.1361 34.6804 26.3381 34.5724 26.6421 34.5714H30.5001C36.6831 34.5714 41.9301 30.1774 42.8891 24.0644C43.5671 19.7244 41.7071 15.7774 37.9731 13.8204H37.9721Z" fill="#001C64"/>
<path d="M18.056 26.9003L16.129 39.1203L14.919 46.7843C14.8955 46.9325 14.9045 47.0841 14.9453 47.2285C14.9862 47.3729 15.0578 47.5068 15.1553 47.6209C15.2528 47.7349 15.3739 47.8265 15.5103 47.8892C15.6466 47.952 15.7949 47.9844 15.945 47.9843H22.615C22.9192 47.984 23.2133 47.8751 23.4444 47.6773C23.6756 47.4796 23.8286 47.2058 23.876 46.9053L25.634 35.7653C25.6814 35.4649 25.8344 35.1913 26.0656 34.9937C26.2967 34.796 26.5908 34.6874 26.895 34.6873H30.822C37.005 34.6873 42.251 30.1773 43.21 24.0643C43.89 19.7253 41.706 15.7783 37.972 13.8203C37.962 14.2823 37.922 14.7433 37.851 15.2003C36.892 21.3123 31.645 25.8233 25.462 25.8233H19.317C19.013 25.8234 18.719 25.9319 18.4879 26.1293C18.2567 26.3267 18.1036 26.6001 18.056 26.9003Z" fill="#0070E0"/>
<path d="M16.128 39.1202H8.36797C8.21793 39.1203 8.06964 39.0879 7.93336 39.0251C7.79707 38.9623 7.67602 38.8708 7.57857 38.7567C7.48112 38.6426 7.40959 38.5087 7.36891 38.3643C7.32824 38.2199 7.31938 38.0683 7.34297 37.9202L12.575 4.73816C12.6224 4.43758 12.7756 4.16381 13.007 3.96617C13.2383 3.76854 13.5327 3.66001 13.837 3.66016H27.174C33.487 3.66016 38.079 8.25516 37.972 13.8202C36.401 12.9962 34.555 12.5252 32.532 12.5252H21.413C21.1089 12.5255 20.8149 12.6342 20.5838 12.8317C20.3527 13.0293 20.1996 13.3028 20.152 13.6032L18.057 26.9002L16.127 39.1202H16.128Z" fill="#003087"/>
</svg>
