<svg width="32" height="33" viewBox="0 0 32 33" fill="none" xmlns="http://www.w3.org/2000/svg">
<g opacity="0.7">
<path d="M26 7.92857H22.1429L21.6898 6.72268C21.1893 5.38661 19.9089 4.5 18.4786 4.5H12.95C11.5196 4.5 10.2446 5.38446 9.74107 6.72054L9.28571 7.92857H5.42857C3.53482 7.92857 2 9.46607 2 11.3571V25.0714C2 26.9652 3.53482 28.5 5.42857 28.5H26C27.8937 28.5 29.4286 26.9652 29.4286 25.0714V11.3571C29.4286 9.46607 27.8911 7.92857 26 7.92857ZM27.7143 25.0714C27.7143 26.0143 26.9429 26.7857 26 26.7857H5.42857C4.48571 26.7857 3.71429 26.0143 3.71429 25.0714V11.3571C3.71429 10.4143 4.48571 9.64286 5.42857 9.64286H10.4777L11.3407 7.32964C11.5893 6.65893 12.1839 6.21429 12.9446 6.21429H18.4786C19.1943 6.21429 19.8345 6.65898 20.0846 7.32964L20.9536 9.64286H26C26.9429 9.64286 27.7143 10.4143 27.7143 11.3571V25.0714ZM15.7143 11.7857C12.1679 11.7857 9.28571 14.6679 9.28571 18.2143C9.28571 21.7607 12.1652 24.6429 15.7143 24.6429C19.2634 24.6429 22.1429 21.7634 22.1429 18.2143C22.1429 14.6652 19.2661 11.7857 15.7143 11.7857ZM15.7143 22.9286C13.1161 22.9286 11 20.8125 11 18.2143C11 15.6161 13.1161 13.5 15.7143 13.5C18.3125 13.5 20.4286 15.6161 20.4286 18.2143C20.4286 20.8125 18.3125 22.9286 15.7143 22.9286Z" fill="#272727"/>
</g>
</svg>
