<svg width="30" height="31" viewBox="0 0 30 31" fill="none" xmlns="http://www.w3.org/2000/svg">
<path d="M15 1C7.26719 1 1 7.26719 1 15C1 22.7328 7.26719 29 15 29C22.7328 29 29 22.7328 29 15C29 7.26719 22.7328 1 15 1ZM21.3328 12.5828L14.3328 19.5828C14.032 19.8836 13.6438 20.0312 13.25 20.0312C12.8562 20.0312 12.4658 19.8826 12.1666 19.5835L8.66664 16.0835C8.07 15.4852 8.07 14.5145 8.66664 13.9162C9.26492 13.3179 10.2356 13.3179 10.8339 13.9162L13.25 16.3344L19.1672 10.4172C19.7655 9.81891 20.7362 9.81891 21.3345 10.4172C21.9289 11.0133 21.9289 11.9867 21.3328 12.5828Z" fill="#18D284"/>
</svg>
