<svg width="32" height="33" viewBox="0 0 32 33" fill="none" xmlns="http://www.w3.org/2000/svg">
<g opacity="0.7">
<path d="M15.5972 10.0833C12.6507 10.0833 10.25 12.9651 10.25 16.5C10.25 20.0349 12.6485 22.9167 15.5972 22.9167C18.546 22.9167 20.9444 20.0378 20.9444 16.5C20.9444 12.9622 18.5438 10.0833 15.5972 10.0833ZM15.5972 21.0833C13.631 21.0833 12.0324 19.0271 12.0324 16.5C12.0324 13.9729 13.631 11.9167 15.5972 11.9167C17.5634 11.9167 19.162 13.9729 19.162 16.5C19.162 19.0271 17.5634 21.0833 15.5972 21.0833ZM25.6296 5.5H5.56481C3.59581 5.5 2 7.14141 2 9.16667V23.8333C2 25.8586 3.59581 27.5 5.56481 27.5H25.6296C27.5986 27.5 29.1944 25.8586 29.1944 23.8333V9.16667C29.1944 7.14141 27.5958 5.5 25.6296 5.5ZM3.78241 9.16667C3.78241 8.15604 4.58226 7.33333 5.56481 7.33333H7.34722C7.34722 9.35573 5.74863 11 3.78241 11V9.16667ZM5.56481 25.6667C4.58226 25.6667 3.78241 24.844 3.78241 23.8333V22C5.74863 22 7.34722 23.6443 7.34722 25.6667H5.56481ZM27.412 23.8333C27.412 24.844 26.6122 25.6667 25.6296 25.6667H23.8472C23.8472 23.6443 25.4458 22 27.412 22V23.8333ZM27.412 20.1667C24.4633 20.1667 22.0648 22.6336 22.0648 25.6667H9.12963C9.12963 22.6336 6.73118 20.1667 3.78241 20.1667V12.8333C6.73118 12.8333 9.12963 10.3664 9.12963 7.33333H22.0648C22.0648 10.3664 24.4633 12.8333 27.412 12.8333V20.1667ZM27.412 11C25.4458 11 23.8472 9.35573 23.8472 7.33333H25.6296C26.6122 7.33333 27.412 8.15604 27.412 9.16667V11Z" fill="#272727"/>
</g>
</svg>
