<svg width="32" height="33" viewBox="0 0 32 33" fill="none" xmlns="http://www.w3.org/2000/svg">
<g opacity="0.7">
<path d="M22.5322 28.9976H9.46538C5.90104 28.9976 3 26.0965 3 22.5322V9.46538C3 5.90104 5.90104 3 9.46538 3H22.5346C26.099 3 29 5.90104 29 9.46538V22.5346C29 26.099 26.099 29 22.5346 29L22.5322 28.9976ZM9.46538 4.70078C6.83889 4.70078 4.70078 6.83889 4.70078 9.46538V22.5346C4.70078 25.1611 6.83889 27.2992 9.46538 27.2992H22.5346C25.1611 27.2992 27.2992 25.1635 27.2992 22.5346V9.46538C27.2992 6.83889 25.1635 4.70078 22.5346 4.70078H9.46538Z" fill="#272727"/>
<path d="M10.3596 12.3495C10.1215 12.1162 10.0024 11.8295 10.0024 11.4894C10.0024 11.1492 10.1215 10.8722 10.3596 10.6439C10.5977 10.4155 10.8893 10.3013 11.2319 10.3013C11.5744 10.3013 11.866 10.4155 12.1041 10.6439C12.3422 10.8722 12.4613 11.1541 12.4613 11.4894C12.4613 11.8247 12.3422 12.1235 12.1041 12.3543C11.866 12.5852 11.5744 12.7018 11.2319 12.7018C10.8893 12.7018 10.5977 12.5852 10.3596 12.3519V12.3495ZM10.1701 13.8097H12.2402V21.6965H10.1701V13.8097V13.8097Z" fill="#272727"/>
<path d="M21.201 14.5262C21.7307 15.1507 21.9955 16.0035 21.9955 17.0847V21.6962H19.9327V17.471C19.9327 16.8563 19.7918 16.3752 19.5075 16.0278C19.2233 15.6803 18.8054 15.5054 18.2514 15.5054C17.6974 15.5054 17.2163 15.7143 16.8689 16.1298C16.5215 16.5453 16.3465 17.1017 16.3465 17.7966V21.6938H14.291V13.8095H16.3465V14.8056C16.9807 13.9941 17.8286 13.5884 18.888 13.5884C19.9473 13.5884 20.6689 13.8994 21.1986 14.5238L21.201 14.5262Z" fill="#272727"/>
</g>
</svg>
