<svg width="32" height="33" viewBox="0 0 32 33" fill="none" xmlns="http://www.w3.org/2000/svg">
<g opacity="0.7">
<path d="M25 4.5H7C4.79063 4.5 3 6.29063 3 8.5V24.5C3 26.7094 4.79063 28.5 7 28.5H25C27.2094 28.5 29 26.7094 29 24.5V8.5C29 6.29063 27.2062 4.5 25 4.5ZM7 6.5H25C26.1025 6.5 27 7.3975 27 8.5V10.7506L17.8 19.9006C16.7375 20.6956 15.2606 20.6956 14.1981 19.9006L5 10.75V8.5C5 7.4 5.8975 6.5 7 6.5ZM27 24.5C27 25.6025 26.1025 26.5 25 26.5H7C5.8975 26.5 5 25.6025 5 24.5V13.1938L13 21.5C13.8825 22.1631 14.9412 22.5012 16 22.5012C17.0588 22.5012 18.1187 22.1625 19 21.5L27 13.1938V24.5Z" fill="#272727"/>
</g>
</svg>
