<svg width="32" height="32" viewBox="0 0 32 32" fill="none" xmlns="http://www.w3.org/2000/svg">
<g opacity="0.7">
<path d="M30.1042 7.85625C29.5526 7.57062 28.887 7.60833 28.3776 7.96557L23.0234 11.7177C22.6458 11.9813 22.5547 12.5015 22.8183 12.8781C23.0365 13.2552 23.599 13.3438 23.9792 13.0833L29.3333 9.33333V22.6615L23.9792 18.9167C23.6007 18.6538 23.0823 18.7442 22.8188 19.1218C22.5551 19.4985 22.6462 20.0186 23.0239 20.2822L28.378 24.0311C28.6645 24.2314 28.9999 24.3325 29.3353 24.3325C29.5982 24.3325 29.8624 24.2698 30.1051 24.1437C30.6562 23.8542 31 23.2448 31 22.6198V9.33333C31 8.70833 30.6562 8.14583 30.1042 7.85625ZM17.6667 6H4.33333C2.49219 6 1 7.49219 1 9.33333V22.6667C1 24.5078 2.49219 26 4.33333 26H17.6667C19.5078 26 21 24.5078 21 22.6667V9.33333C21 7.49219 19.5052 6 17.6667 6ZM19.3333 22.6667C19.3333 23.5854 18.5854 24.3333 17.6667 24.3333H4.33333C3.41458 24.3333 2.66667 23.5854 2.66667 22.6667V9.33333C2.66667 8.41458 3.41458 7.66667 4.33333 7.66667H17.6667C18.5854 7.66667 19.3333 8.41458 19.3333 9.33333V22.6667Z" fill="#272727"/>
</g>
</svg>
