<svg width="40" height="40" viewBox="0 0 40 40" fill="none" xmlns="http://www.w3.org/2000/svg">
<path d="M31.9521 10H21.2143L18.1445 7.17188C17.3958 6.42125 16.385 6 15.3244 6H7.99316C5.78756 6 4 7.79125 4 10V30C4 32.2088 5.78756 34 7.99316 34H31.9521C34.1577 34 35.9453 32.2088 35.9453 30V14C35.9453 11.7938 34.1546 10 31.9521 10ZM32.9504 30C32.9504 30.5515 32.5026 31 31.9521 31H7.99316C7.44273 31 6.99487 30.5515 6.99487 30V10C6.99487 9.4485 7.44273 9 7.99316 9H15.3244C15.591 9 15.8418 9.104 16.03 9.293L19.9726 13H31.9521C32.5026 13 32.9504 13.4485 32.9504 14V30ZM24.1156 24.0312C24.6397 23.1375 24.9641 22.1125 24.9641 21C24.9641 17.6862 22.2824 15 18.9744 15C15.6663 15 12.9846 17.6862 12.9846 21C12.9846 24.3138 15.6663 27 18.9744 27C20.0831 27 21.1088 26.6775 21.9992 26.1513L24.9036 29.0606C25.195 29.3563 25.5756 29.5 25.9624 29.5C26.3492 29.5 26.7286 29.3535 27.0212 29.0606C27.6061 28.4746 27.6061 27.5256 27.0212 26.9393L24.1156 24.0312ZM18.9744 24C17.3209 24 15.9795 22.6562 15.9795 21C15.9795 19.3438 17.3209 18 18.9744 18C20.6278 18 21.9692 19.3438 21.9692 21C21.9692 22.6562 20.6278 24 18.9744 24Z" fill="#4DA3F0"/>
</svg>
